<svg xmlns="http://www.w3.org/2000/svg" xmlns:svg="http://www.w3.org/2000/svg" version="1.1" id="svg2" viewBox="113.58 81.5 486.7 532.97">
  <defs id="defs6">
    <clipPath clipPathUnits="userSpaceOnUse" id="clipPath16">
      <path d="M 0,500 H 500 V 0 H 0 Z" id="path14"/>
    </clipPath>
  </defs>
  <g id="g8" transform="matrix(1.3333333,0,0,-1.3333333,0,666.66667)">
    <g id="g10">
      <g id="g12" clip-path="url(#clipPath16)">
        <g id="g18" transform="translate(143.272,412.3949)">
          <path d="m 0,0 c -10.042,-0.573 -16.854,-3.168 -23.676,-10.875 -0.456,-0.518 -0.895,-1.05 -1.316,-1.597 -0.422,-0.547 -0.826,-1.106 -1.212,-1.678 -0.387,-0.573 -0.754,-1.157 -1.103,-1.752 -0.349,-0.596 -0.679,-1.202 -0.989,-1.819 -0.31,-0.616 -0.601,-1.242 -0.871,-1.878 -0.27,-0.635 -0.52,-1.278 -0.75,-1.929 -0.23,-0.651 -0.438,-1.309 -0.626,-1.974 -0.188,-0.664 -0.354,-1.333 -0.499,-2.009 -1.008,-4.63 -0.769,-9.45 -0.764,-14.159 l 0.018,-15.228 c -0.002,-7.239 -0.428,-14.738 0.077,-21.947 0.591,-8.459 4.675,-17.02 11.119,-22.592 8.943,-7.734 16.76,-7.736 27.981,-7.718 l 16.577,0.031 c 8.87,0.55 16.58,3.787 22.54,10.591 0.457,0.529 0.898,1.071 1.321,1.627 0.424,0.556 0.83,1.124 1.219,1.705 0.389,0.581 0.759,1.174 1.112,1.777 0.352,0.604 0.685,1.218 1,1.842 0.315,0.625 0.61,1.258 0.886,1.9 0.275,0.643 0.531,1.293 0.767,1.951 0.235,0.658 0.45,1.323 0.645,1.994 0.195,0.672 0.369,1.348 0.522,2.03 1.782,7.832 0.978,20.742 0.96,29.054 -0.015,7.515 0.321,15.151 -0.208,22.644 -0.042,0.541 -0.097,1.08 -0.165,1.617 -0.068,0.538 -0.149,1.074 -0.244,1.607 -0.094,0.534 -0.201,1.065 -0.322,1.593 -0.12,0.529 -0.253,1.054 -0.399,1.576 -0.146,0.522 -0.305,1.04 -0.476,1.554 -0.171,0.515 -0.355,1.024 -0.551,1.529 -0.196,0.506 -0.405,1.006 -0.625,1.501 -0.22,0.495 -0.453,0.984 -0.698,1.468 -0.245,0.483 -0.501,0.961 -0.769,1.432 -0.268,0.471 -0.547,0.936 -0.838,1.393 -0.29,0.457 -0.592,0.907 -0.905,1.35 -0.313,0.443 -0.635,0.878 -0.969,1.305 -0.334,0.427 -0.678,0.845 -1.033,1.255 -0.354,0.411 -0.718,0.811 -1.092,1.204 -0.374,0.392 -0.757,0.775 -1.15,1.148 -0.392,0.374 -0.794,0.738 -1.205,1.092 C 34.258,0.478 25.206,0.062 13.979,0.049 9.342,0.044 4.625,0.213 0,0 m -7.064,26.262 c 6.77,0.303 13.619,0.1 20.398,0.097 5.491,-0.002 11.243,0.35 16.705,-0.122 9.786,-0.845 20.12,-5.279 27.953,-11.053 0.765,-0.572 1.515,-1.163 2.25,-1.772 0.736,-0.61 1.455,-1.237 2.16,-1.882 0.705,-0.644 1.393,-1.306 2.065,-1.984 0.672,-0.679 1.327,-1.373 1.965,-2.084 0.639,-0.711 1.259,-1.436 1.861,-2.177 0.603,-0.741 1.186,-1.496 1.752,-2.266 0.565,-0.77 1.112,-1.553 1.639,-2.35 0.526,-0.796 1.034,-1.605 1.521,-2.426 0.487,-0.822 0.954,-1.655 1.401,-2.499 0.446,-0.844 0.872,-1.699 1.276,-2.564 0.405,-0.866 0.788,-1.74 1.149,-2.624 0.362,-0.884 0.701,-1.776 1.019,-2.677 0.318,-0.9 0.614,-1.809 0.886,-2.724 0.273,-0.915 0.524,-1.836 0.752,-2.763 0.228,-0.928 0.434,-1.861 0.616,-2.798 0.182,-0.937 0.341,-1.879 0.477,-2.824 1.21,-8.532 0.568,-17.643 0.577,-26.26 0.024,-23.091 2.389,-42.088 -12.668,-61.791 -9.394,-12.294 -23.175,-19.783 -38.402,-21.783 l -0.268,-0.031 c -5.976,-0.663 -12.215,-0.324 -18.23,-0.33 -18.552,-0.02 -32.019,-0.212 -47.507,12.134 -10.007,7.978 -16.761,18.449 -20.303,30.722 -0.752,2.607 -1.534,5.286 -1.813,7.991 -0.359,3.481 -0.214,7.077 -0.209,10.574 l 0.011,16.136 -0.021,19.356 c -0.002,4.234 -0.209,8.637 0.368,12.835 1.349,9.813 6.326,20.43 12.513,28.048 8.225,10.129 18.616,17.078 31.259,20.365 2.243,0.583 4.54,1.279 6.848,1.526" style="fill:#005eab;fill-opacity:1;fill-rule:nonzero;stroke:none" id="path20"/>
        </g>
        <g id="g22" transform="translate(304.4932,401.1444)">
          <path d="m 0,0 c -8.586,-0.521 -16.312,-3.752 -22.071,-10.295 -3.624,-4.119 -6.263,-8.835 -7.581,-14.176 -1.902,-7.707 -1.083,-22.112 -1.069,-30.351 0.012,-7.152 -0.341,-14.458 0.144,-21.586 0.039,-0.552 0.093,-1.103 0.159,-1.654 0.065,-0.549 0.146,-1.096 0.239,-1.643 0.092,-0.545 0.199,-1.088 0.318,-1.628 0.12,-0.541 0.253,-1.079 0.398,-1.612 0.146,-0.534 0.305,-1.065 0.476,-1.592 0.172,-0.526 0.355,-1.048 0.552,-1.566 0.198,-0.517 0.407,-1.029 0.629,-1.535 0.222,-0.508 0.456,-1.009 0.702,-1.506 0.248,-0.495 0.505,-0.984 0.776,-1.467 0.269,-0.484 0.552,-0.96 0.846,-1.43 0.294,-0.469 0.598,-0.931 0.914,-1.385 0.316,-0.455 0.643,-0.902 0.981,-1.341 0.337,-0.438 0.686,-0.868 1.044,-1.29 0.359,-0.422 0.729,-0.834 1.106,-1.237 0.379,-0.404 0.768,-0.799 1.166,-1.184 0.398,-0.384 0.805,-0.759 1.222,-1.124 10.036,-8.81 19.82,-8.316 32.325,-8.303 4.97,0.005 10.063,-0.206 15.017,0.137 0.134,0.01 0.268,0.022 0.401,0.034 8.365,0.448 15.838,4.156 21.453,10.375 0.937,1.053 1.806,2.16 2.609,3.318 0.803,1.16 1.532,2.363 2.188,3.609 0.659,1.248 1.238,2.53 1.74,3.848 0.502,1.317 0.922,2.66 1.263,4.027 1.885,7.864 1.057,21.179 1.042,29.566 -0.012,6.981 0.302,14.077 -0.062,21.041 -0.48,9.197 -3.989,17.546 -10.935,23.766 C 38.08,0.692 28.837,0.134 16.398,0.137 10.948,0.138 5.441,0.282 0,0 m -4.66,27.263 c 5.33,0.713 11.264,0.167 16.651,0.179 18.927,0.045 31.76,0.783 48.087,-11.216 12.205,-8.97 21.256,-23.594 23.487,-38.609 1.466,-9.851 0.879,-20.115 0.873,-30.06 -0.008,-11.066 0.933,-23.969 -1.427,-34.677 -0.234,-1.082 -0.495,-2.157 -0.787,-3.225 -0.291,-1.069 -0.612,-2.129 -0.96,-3.179 -0.35,-1.052 -0.727,-2.093 -1.132,-3.123 -0.405,-1.03 -0.838,-2.049 -1.299,-3.057 -0.46,-1.006 -0.947,-2 -1.462,-2.981 -0.515,-0.98 -1.056,-1.946 -1.622,-2.898 -0.566,-0.951 -1.159,-1.886 -1.777,-2.805 -0.618,-0.919 -1.259,-1.821 -1.926,-2.705 -10.324,-13.681 -23.952,-20.717 -40.727,-23.047 -6.207,-0.568 -12.701,-0.237 -18.934,-0.223 -5.166,0.01 -10.465,-0.18 -15.616,0.17 -0.736,0.047 -1.471,0.11 -2.205,0.186 -0.733,0.075 -1.464,0.166 -2.194,0.27 -0.73,0.104 -1.458,0.222 -2.183,0.355 -0.725,0.132 -1.448,0.278 -2.167,0.439 -0.72,0.16 -1.436,0.335 -2.149,0.523 -0.714,0.188 -1.423,0.389 -2.128,0.605 -0.705,0.215 -1.405,0.443 -2.102,0.686 -0.697,0.242 -1.387,0.498 -2.075,0.768 -0.686,0.268 -1.367,0.55 -2.043,0.845 -0.675,0.296 -1.345,0.604 -2.008,0.926 -0.664,0.321 -1.322,0.655 -1.972,1.002 -0.65,0.346 -1.295,0.705 -1.931,1.077 -0.637,0.371 -1.267,0.755 -1.889,1.151 -0.622,0.395 -1.237,0.802 -1.843,1.223 -0.607,0.419 -1.204,0.85 -1.794,1.293 -0.59,0.442 -1.171,0.896 -1.743,1.361 -0.76,0.617 -1.503,1.252 -2.233,1.905 -0.728,0.654 -1.44,1.324 -2.137,2.012 -0.697,0.688 -1.376,1.392 -2.038,2.111 -0.663,0.721 -1.308,1.456 -1.935,2.208 -0.628,0.752 -1.236,1.518 -1.826,2.299 -0.59,0.78 -1.161,1.574 -1.713,2.383 -0.552,0.808 -1.084,1.628 -1.597,2.462 -0.512,0.834 -1.005,1.68 -1.476,2.538 -0.471,0.857 -0.922,1.725 -1.352,2.605 -0.431,0.879 -0.839,1.768 -1.226,2.667 -0.387,0.898 -0.752,1.806 -1.095,2.723 -0.343,0.916 -0.665,1.841 -0.963,2.773 -0.299,0.932 -0.576,1.87 -0.829,2.815 -0.254,0.945 -0.485,1.896 -0.692,2.853 -0.208,0.956 -0.393,1.916 -0.554,2.881 -0.162,0.966 -0.301,1.935 -0.415,2.907 -0.969,8.967 -0.494,18.233 -0.503,27.25 -0.021,22.684 -1.704,40.912 13.705,59.931 10.041,12.396 24.072,19.728 39.876,21.423" style="fill:#a30046;fill-opacity:1;fill-rule:nonzero;stroke:none" id="path24"/>
        </g>
        <g id="g26" transform="translate(168.355,229.8934)">
          <path d="m 0,0 c -12.069,-0.312 -20.115,-1.282 -28.853,-10.487 -12.073,-12.717 -10.009,-28.218 -9.987,-44.343 0.011,-8.353 -0.237,-16.787 0.026,-25.13 0.309,-9.822 3.925,-19.256 11.206,-26.04 9.316,-8.681 17.676,-9.178 29.767,-9.174 l 15.799,0.021 c 10.738,0.028 19.49,2.026 27.355,9.909 12.036,12.06 10.59,26.856 10.564,42.411 v 24.692 C 55.785,-27.424 53.063,-17.527 45.234,-9.765 36.499,-1.104 27.896,-0.157 16.21,0.023 11.105,0.078 6,0.08 0.896,0.029 0.597,0.025 0.299,0.015 0,0 m -7.207,27.25 c 6.546,0.101 13.093,0.135 19.64,0.101 4.095,-0.002 8.259,0.121 12.344,-0.153 13.045,-0.877 25.311,-5.499 35.303,-14.028 0.783,-0.66 1.55,-1.339 2.3,-2.036 0.75,-0.697 1.482,-1.413 2.197,-2.148 0.715,-0.733 1.411,-1.483 2.089,-2.252 0.678,-0.767 1.336,-1.551 1.975,-2.351 0.639,-0.801 1.258,-1.616 1.857,-2.447 0.599,-0.832 1.178,-1.676 1.735,-2.536 0.558,-0.859 1.093,-1.731 1.607,-2.618 0.514,-0.885 1.007,-1.782 1.477,-2.692 0.47,-0.91 0.917,-1.831 1.342,-2.764 0.424,-0.931 0.826,-1.874 1.205,-2.825 0.379,-0.952 0.733,-1.913 1.064,-2.882 0.331,-0.969 0.638,-1.946 0.921,-2.931 0.283,-0.984 0.541,-1.974 0.776,-2.971 0.234,-0.998 0.443,-2 0.628,-3.007 0.185,-1.008 0.344,-2.019 0.479,-3.034 0.135,-1.016 0.246,-2.033 0.33,-3.055 0.746,-9.439 0.299,-19.141 0.308,-28.613 0.01,-9.321 0.558,-18.983 -0.549,-28.254 -1.461,-12.236 -7.077,-24.306 -15.111,-33.615 -10.69,-12.388 -25.599,-19.208 -41.753,-20.462 -6.337,-0.266 -12.729,-0.114 -19.072,-0.115 -6.219,-0.001 -12.468,-0.176 -18.656,0.557 -11.065,1.312 -22.305,6.601 -30.702,13.855 -12.285,10.614 -20.477,26.378 -21.618,42.634 -0.652,9.289 -0.217,18.838 -0.221,28.16 -0.002,8.92 -0.527,18.209 0.34,27.079 0.082,0.793 0.18,1.584 0.292,2.373 0.113,0.789 0.241,1.576 0.383,2.36 0.142,0.785 0.299,1.566 0.472,2.345 0.173,0.778 0.36,1.553 0.562,2.324 0.202,0.771 0.419,1.538 0.651,2.302 0.231,0.762 0.477,1.52 0.738,2.273 0.26,0.754 0.535,1.502 0.824,2.245 0.289,0.743 0.592,1.48 0.91,2.211 0.317,0.732 0.649,1.457 0.994,2.175 0.345,0.719 0.703,1.432 1.076,2.137 0.372,0.704 0.757,1.401 1.157,2.092 0.399,0.69 0.811,1.373 1.236,2.046 0.426,0.675 0.864,1.341 1.314,1.999 0.451,0.658 0.914,1.306 1.389,1.947 0.476,0.639 0.964,1.27 1.463,1.891 0.499,0.621 1.011,1.233 1.534,1.834 11.314,12.935 25.734,19.674 42.77,20.849" style="fill:#005eab;fill-opacity:1;fill-rule:nonzero;stroke:none" id="path28"/>
        </g>
        <g id="g30" transform="translate(341.0244,220.66)">
          <path d="m 0,0 c -12.978,-1.407 -23.675,-7.286 -31.84,-17.507 -0.596,-0.744 -1.171,-1.504 -1.724,-2.28 -0.554,-0.776 -1.085,-1.567 -1.594,-2.373 -0.51,-0.806 -0.996,-1.625 -1.459,-2.458 -0.464,-0.833 -0.904,-1.679 -1.321,-2.537 -0.416,-0.858 -0.807,-1.726 -1.175,-2.606 -0.367,-0.88 -0.71,-1.768 -1.029,-2.667 -0.317,-0.899 -0.61,-1.806 -0.877,-2.721 -0.267,-0.915 -0.508,-1.837 -0.723,-2.766 -1.793,-7.963 -1.489,-16.109 -1.487,-24.214 l 0.021,-22.348 c 0.008,-8.664 -0.629,-18.243 0.394,-26.787 1.637,-13.666 8.371,-26.209 19.251,-34.719 13.735,-10.743 27.468,-8.952 43.653,-8.968 6.221,-0.006 12.787,-0.478 18.948,0.137 11.318,0.387 22.02,6.334 29.647,14.484 0.778,0.829 1.528,1.682 2.25,2.56 0.721,0.878 1.413,1.781 2.074,2.705 0.661,0.924 1.291,1.871 1.888,2.837 0.599,0.966 1.165,1.952 1.698,2.956 0.532,1.004 1.031,2.025 1.496,3.062 0.465,1.037 0.894,2.089 1.289,3.155 0.394,1.067 0.753,2.145 1.076,3.235 0.322,1.09 0.608,2.188 0.857,3.298 1.458,6.387 1.207,13.073 1.205,19.577 l -0.009,17.775 c -0.007,10.2 0.338,20.516 -0.051,30.7 -0.533,13.954 -5.615,27.12 -16.066,36.699 C 52.249,1.194 39.61,0.172 21.896,0.145 14.887,0.134 7.808,0.391 0.811,0.056 0.538,0.043 0.271,0.026 0,0 m -1.139,26.233 c 7.476,0.499 15.177,0.158 22.673,0.155 17.543,-0.005 30.573,0.678 46.806,-7.592 3.833,-1.953 7.803,-4.256 11.168,-6.939 0.986,-0.773 1.953,-1.569 2.9,-2.389 0.948,-0.82 1.875,-1.661 2.781,-2.527 0.908,-0.866 1.791,-1.753 2.655,-2.661 0.862,-0.909 1.702,-1.838 2.519,-2.788 0.818,-0.95 1.612,-1.92 2.381,-2.908 0.77,-0.988 1.515,-1.996 2.235,-3.021 0.721,-1.025 1.417,-2.068 2.085,-3.127 0.669,-1.059 1.313,-2.134 1.928,-3.225 0.617,-1.091 1.207,-2.196 1.77,-3.316 0.562,-1.12 1.097,-2.253 1.603,-3.399 0.507,-1.146 0.986,-2.304 1.437,-3.473 0.45,-1.169 0.871,-2.349 1.262,-3.539 0.393,-1.19 0.756,-2.389 1.089,-3.597 0.334,-1.208 0.638,-2.423 0.911,-3.646 0.275,-1.222 0.519,-2.451 0.733,-3.686 0.213,-1.235 0.396,-2.474 0.55,-3.718 1.336,-11.834 0.652,-24.585 0.658,-36.552 0.014,-30.37 3.142,-53.801 -17.4,-79.334 -0.629,-0.781 -1.276,-1.548 -1.938,-2.302 -0.663,-0.753 -1.342,-1.493 -2.035,-2.218 -0.694,-0.725 -1.403,-1.435 -2.126,-2.13 -0.725,-0.696 -1.463,-1.374 -2.215,-2.038 -0.753,-0.664 -1.519,-1.312 -2.299,-1.944 -0.779,-0.631 -1.571,-1.247 -2.378,-1.845 -0.805,-0.598 -1.624,-1.179 -2.454,-1.742 -0.829,-0.564 -1.671,-1.11 -2.524,-1.638 -0.854,-0.528 -1.718,-1.038 -2.592,-1.531 -0.875,-0.491 -1.76,-0.964 -2.654,-1.418 -0.895,-0.455 -1.799,-0.89 -2.712,-1.306 -0.913,-0.417 -1.835,-0.814 -2.765,-1.191 -0.93,-0.377 -1.867,-0.735 -2.812,-1.072 -0.945,-0.338 -1.897,-0.656 -2.854,-0.954 -0.959,-0.298 -1.924,-0.575 -2.893,-0.832 -0.97,-0.257 -1.946,-0.493 -2.925,-0.709 -3.382,-0.741 -6.819,-1.08 -10.255,-1.447 -8.502,-0.185 -17.027,-0.086 -25.531,-0.087 -6.079,-0.001 -12.24,-0.227 -18.296,0.253 -0.951,0.074 -1.901,0.168 -2.848,0.28 -0.948,0.112 -1.893,0.244 -2.836,0.396 -0.941,0.151 -1.88,0.322 -2.814,0.512 -0.936,0.19 -1.867,0.399 -2.793,0.626 -0.927,0.228 -1.849,0.475 -2.765,0.74 -0.916,0.265 -1.827,0.549 -2.732,0.852 -0.905,0.303 -1.803,0.624 -2.696,0.963 -0.89,0.34 -1.775,0.697 -2.652,1.073 -0.878,0.375 -1.747,0.769 -2.607,1.18 -0.862,0.411 -1.714,0.839 -2.557,1.285 -0.845,0.446 -1.679,0.909 -2.503,1.389 -0.825,0.48 -1.64,0.976 -2.443,1.49 -0.805,0.514 -1.599,1.043 -2.381,1.588 -0.783,0.546 -1.554,1.107 -2.315,1.685 -0.759,0.578 -1.507,1.169 -2.242,1.777 -0.735,0.608 -1.459,1.23 -2.169,1.868 -15.77,13.891 -24.392,33.794 -25.655,54.57 -0.254,4.167 -0.111,8.404 -0.11,12.579 l 0.009,21.729 c -0.008,11.429 -0.656,23.228 0.65,34.594 1.739,15.126 8.403,30.576 18.566,41.96 12.935,14.486 29.914,23.225 49.407,24.297" style="fill:#a30046;fill-opacity:1;fill-rule:nonzero;stroke:none" id="path32"/>
        </g>
      </g>
    </g>
  </g>
</svg>