<svg xmlns="http://www.w3.org/2000/svg" version="1.1" viewBox="0.23 132.99 2397.11 1399.27">
<path d="M0 0 C18.56378947 0.00454276 37.12757271 0.00362606 55.6913621 -0.00090924 C77.79158409 -0.00630672 99.89180247 -0.00834879 121.99202503 -0.00529698 C124.35772546 -0.00497869 126.72342588 -0.00466431 129.0891263 -0.00435391 C130.25045306 -0.00419964 131.41177982 -0.00404536 132.60829831 -0.00388641 C140.5789759 -0.00304239 148.54965103 -0.00445336 156.52032824 -0.00683346 C205.56138215 -0.02026873 254.58301703 0.10816699 303.61494608 1.12946185 C304.57592409 3.03991544 305.535578 4.95103511 306.49467631 6.86243305 C307.02922623 7.92661582 307.56377615 8.9907986 308.11452456 10.08722934 C309.94429255 13.79723988 311.6154948 17.5509317 313.21650858 21.36383685 C313.53062189 22.10332065 313.84473521 22.84280445 314.1683671 23.60469684 C315.19623027 26.0279458 316.21825364 28.45360544 317.23994608 30.87946185 C317.98008336 32.62913046 318.72040403 34.37872151 319.46089335 36.12824115 C327.34835854 54.78740559 335.12031312 73.49505375 342.8983018 92.20003375 C347.90453818 104.23569646 352.93978321 116.259189 357.97725077 128.2818056 C358.71976505 130.05394049 359.46227807 131.82607591 360.20478983 133.59821185 C360.57081309 134.47171283 360.93683634 135.34521381 361.31395121 136.24518451 C363.85840063 142.31898165 366.39617667 148.39553897 368.93135233 154.47321185 C381.87818472 185.49822758 395.06360916 216.4204284 408.26582499 247.33746967 C419.63469377 273.9637696 430.86533158 300.643586 441.97503825 327.37904987 C446.21266728 337.57395074 450.47400578 347.75888112 454.73994608 357.94196185 C455.1075001 358.81934009 455.47505411 359.69671832 455.85374613 360.60068378 C458.07014058 365.89119526 458.07014058 365.89119526 460.28671427 371.18163165 C462.90907129 377.44128942 465.52654239 383.70297716 468.14228983 389.96539935 C476.08701269 408.98138557 484.07990867 427.97552064 492.15254374 446.93756732 C507.14946924 482.16589588 521.96434393 517.47027286 536.72957011 552.7962099 C558.88032542 605.95832597 558.88032542 605.95832597 581.60835429 658.87482318 C582.95381473 661.95553758 584.287779 665.04082956 585.61494608 668.12946185 C586.21883158 669.51512348 586.21883158 669.51512348 586.83491679 670.92877826 C588.7390378 675.44178419 590.13756299 679.14461937 589.92744608 684.12946185 C589.90295389 685.03696185 589.87846171 685.94446185 589.85322733 686.87946185 C589.61494608 689.12946185 589.61494608 689.12946185 588.61494608 691.12946185 C516.50136196 691.16372698 444.38777686 691.19552783 372.2741868 691.21414813 C370.67425817 691.21456231 370.67425817 691.21456231 369.04200774 691.21498484 C345.86374819 691.2209701 322.68548856 691.22651054 299.50722879 691.23159251 C288.14127907 691.23408727 276.77532937 691.23668037 265.40937968 691.23932514 C264.27830679 691.23958665 263.14723391 691.23984817 261.98188609 691.24011762 C225.29397218 691.24864644 188.60606441 691.26367362 151.91815422 691.2820563 C114.22922924 691.30090632 76.54030766 691.31322922 38.85137805 691.31729183 C33.53299677 691.31786818 28.2146155 691.31851945 22.89623423 691.31921634 C21.3260714 691.31941861 21.3260714 691.31941861 19.7241881 691.31962497 C2.84664215 691.3219921 -14.0308933 691.33127819 -30.90843496 691.34312592 C-47.8594856 691.35487854 -64.81052579 691.35940331 -81.76158036 691.35646461 C-91.84321446 691.35493881 -101.92481044 691.35904026 -112.00643768 691.37105694 C-118.73167503 691.37852823 -125.45688727 691.37880935 -132.18212632 691.37312548 C-136.0200171 691.37009122 -139.85783554 691.37029536 -143.69571872 691.37922822 C-147.8207046 691.38875687 -151.94552296 691.38297864 -156.07051305 691.37555751 C-157.2744945 691.38081154 -158.47847594 691.38606557 -159.71894167 691.39147881 C-160.81302767 691.38698422 -161.90711366 691.38248963 -163.03435378 691.37785885 C-163.97834852 691.37817081 -164.92234325 691.37848277 -165.89494389 691.37880418 C-168.5395442 691.11399227 -170.14903371 690.54412094 -172.38505392 689.12946185 C-174.06823552 686.50210363 -174.72161872 684.00040035 -175.27763204 680.95514545 C-176.32230681 675.99369917 -178.0885403 671.5573621 -180.10380392 666.91852435 C-180.65845831 665.61541057 -180.65845831 665.61541057 -181.22431783 664.28597125 C-182.43764989 661.43912606 -183.6614391 658.59690052 -184.88505392 655.75446185 C-185.74385887 653.74353191 -186.60175414 651.73221325 -187.45878439 649.72052631 C-188.78361522 646.610904 -190.10893854 643.50150437 -191.43702535 640.39327106 C-195.47406346 630.94261577 -199.44386236 621.46462262 -203.39930563 611.97959003 C-209.40965926 597.57188214 -215.46219978 583.18254172 -221.57255392 568.81696185 C-221.91291677 568.01672595 -222.25327963 567.21649005 -222.60395651 566.39200458 C-226.54177423 557.13657035 -230.4888948 547.88511723 -234.43954305 538.63515338 C-250.04780315 502.08703497 -265.42494666 465.44975721 -280.57060079 428.70758685 C-298.92326284 384.18796979 -317.83706013 339.90665126 -336.7371047 295.61725482 C-347.57098681 270.22809218 -358.23350964 244.77031278 -368.82792501 219.28034076 C-373.04972763 209.12356068 -377.27982338 198.97023396 -381.51005392 188.81696185 C-381.92483999 187.82129199 -382.33962606 186.82562213 -382.76698141 185.79978046 C-392.38893836 162.70422603 -402.05236855 139.62607907 -411.72294454 116.55084857 C-416.61157176 104.88563267 -421.49624456 93.21877669 -426.37357931 81.54883441 C-427.36048335 79.18823284 -428.34826143 76.82799872 -429.33622579 74.46784076 C-430.80059966 70.96862091 -432.26133625 67.46790707 -433.71885519 63.9658266 C-434.48856931 62.11852458 -435.26171402 60.27265315 -436.03495626 58.42682514 C-436.48306661 57.34771869 -436.93117696 56.26861225 -437.39286642 55.1568056 C-437.78103536 54.22602191 -438.16920431 53.29523822 -438.56913595 52.33624896 C-439.38505392 50.12946185 -439.38505392 50.12946185 -439.38505392 48.12946185 C-440.04505392 48.12946185 -440.70505392 48.12946185 -441.38505392 48.12946185 C-443.39726641 43.44143487 -445.39029785 38.74586867 -447.36649923 34.04254779 C-448.04040776 32.44597255 -448.71937281 30.85152134 -449.40360861 29.25934467 C-450.39020045 26.96113219 -451.35793524 24.65571878 -452.32255392 22.34821185 C-452.62878683 21.64579364 -452.93501974 20.94337543 -453.25053243 20.21967182 C-455.64867156 14.40078955 -456.42964622 9.26323877 -454.38505392 3.12946185 C-450.37229086 1.79187417 -446.47394281 1.90263176 -442.28530721 1.83255634 C-441.32715569 1.81326674 -440.36900416 1.79397714 -439.38181774 1.77410302 C-436.10164559 1.71067167 -432.82140073 1.65559745 -429.54105978 1.60162982 C-428.37205881 1.58119672 -427.20305784 1.56076362 -425.99863259 1.53971133 C-390.0012562 0.91810839 -353.99777108 0.77872696 -317.99605851 0.60449609 C-312.8394026 0.57953311 -307.68275211 0.55359338 -302.52610235 0.52739515 C-201.68438869 0.01603703 -100.84278859 -0.02516474 0 0 Z M-164.38505392 148.12946185 C-162.7808187 152.1418205 -161.17634117 156.15408219 -159.5718215 160.16632709 C-158.8939496 161.8617678 -158.8939496 161.8617678 -158.20238332 163.59145984 C-153.6770897 174.90775834 -153.6770897 174.90775834 -149.07255392 186.19196185 C-148.68261251 187.15682514 -148.29267111 188.12168842 -147.89091329 189.11578998 C-145.7830595 194.2199318 -143.46121954 198.8368276 -140.43607931 203.45587787 C-139.19962036 205.4247341 -138.41185361 207.33780692 -137.76005392 209.56696185 C-137.56153829 210.22567279 -137.36302267 210.88438373 -137.15849142 211.5630556 C-136.90325704 212.40996967 -136.64802267 213.25688373 -136.38505392 214.12946185 C-134.13097411 221.38942955 -131.31457627 228.3687157 -128.38505392 235.37946185 C-127.86556055 236.62859613 -127.34619697 237.87778438 -126.82694845 239.12702045 C-121.20469803 252.63175689 -115.49705403 266.10087792 -109.79911642 279.57379779 C-104.29923239 292.58051068 -98.83052836 305.59988355 -93.38505392 318.62946185 C-86.40915359 335.31831855 -79.38994933 351.98852051 -72.3477004 368.64948139 C-71.55415351 370.52691921 -70.76061503 372.40436058 -69.96708517 374.2818056 C-69.38437101 375.66042774 -69.38437101 375.66042774 -68.78988485 377.06690082 C-66.29900312 382.96167638 -63.81395835 388.85887457 -61.33427267 394.7583681 C-60.8491068 395.91260272 -60.8491068 395.91260272 -60.35413961 397.09015521 C-60.03273 397.85481098 -59.7113204 398.61946674 -59.38017111 399.40729389 C-52.62585226 415.47572731 -45.83085146 431.52663346 -39.01005392 447.56696185 C-38.60102834 448.5296297 -38.19200277 449.49229755 -37.77058248 450.48413715 C-33.16163725 461.32916564 -28.52467213 472.16197551 -23.84599142 482.9771181 C-23.19891729 484.47933162 -23.19891729 484.47933162 -22.53877096 486.01189288 C-22.14048086 486.92991184 -21.74219076 487.84793079 -21.33183126 488.7937685 C-20.97938345 489.60850131 -20.62693563 490.42323413 -20.26380758 491.26265582 C-19.52782985 493.09955711 -19.52782985 493.09955711 -18.38505392 494.12946185 C-15.5531847 494.22961422 -12.74563095 494.26385109 -9.91325216 494.2564455 C-8.56401419 494.25878548 -8.56401419 494.25878548 -7.18751888 494.26117274 C-4.14852992 494.26518735 -1.1095902 494.26199114 1.92939921 494.25885639 C4.0989806 494.26021038 6.26856177 494.26199029 8.43814249 494.26416644 C14.354331 494.26874539 20.27050217 494.2669482 26.186691 494.26378736 C32.3807534 494.26126097 38.57481429 494.26360256 44.76887675 494.26517352 C55.85863073 494.26711354 66.9483779 494.26399412 78.03813054 494.25891419 C89.38721463 494.25387573 100.73628121 494.25644323 112.08536549 494.26165935 C122.4108328 494.26621395 132.73629501 494.26682889 143.061763 494.26422068 C149.22431469 494.26266785 155.38685842 494.26243633 161.54940958 494.26575717 C167.3605767 494.26866919 173.17172218 494.26659961 178.98288698 494.26086292 C181.10432242 494.25955206 183.22575971 494.25990057 185.34719439 494.26212558 C196.26166088 494.27250731 207.1023669 494.115069 217.99267645 493.35474929 C223.83674243 492.991277 229.67191682 493.00524015 235.52510233 493.0318056 C237.35348894 493.03392803 237.35348894 493.03392803 239.21881266 493.03609332 C243.03838421 493.04160448 246.85789284 493.05413888 250.67744608 493.06696185 C253.29788793 493.07198838 255.91833072 493.07654924 258.53877421 493.08063373 C264.89751893 493.09154454 271.25622801 493.10819072 277.61494608 493.12946185 C273.55909688 481.92787114 269.0689546 470.96319641 264.32881327 460.03500995 C262.32254651 455.40769564 260.33023393 450.7743793 258.33760233 446.1411806 C257.93526377 445.20612186 257.53292521 444.27106311 257.11839457 443.30766925 C253.38886275 434.62791366 249.73649025 425.91723417 246.11494608 417.19196185 C245.66633723 416.11180805 245.66633723 416.11180805 245.20866556 415.00983295 C243.97867918 412.04815574 242.74903022 409.08633892 241.52005167 406.12424335 C237.61003341 396.70234985 233.67714729 387.29002334 229.73994608 377.87946185 C229.17267802 376.52342349 229.17267802 376.52342349 228.59394999 375.13999042 C222.79840049 361.29121154 216.94559698 347.46752891 211.06123514 333.65628681 C205.57264824 320.7714673 200.13935693 307.86439262 194.73994608 294.94196185 C186.61989392 275.50953513 178.44005684 256.10282702 170.23933573 236.70432147 C167.35083502 229.87161203 164.46465588 223.03792541 161.57978983 216.2036806 C161.16546702 215.22215518 160.7511442 214.24062976 160.32426615 213.22936115 C159.49590275 211.26695559 158.66754375 209.30454817 157.83918925 207.34213886 C150.77239162 190.60121308 143.70041269 173.86249588 136.61494608 157.12946185 C135.95494608 157.12946185 135.29494608 157.12946185 134.61494608 157.12946185 C134.15088358 155.42789935 134.15088358 155.42789935 133.67744608 153.69196185 C132.98570077 150.34171086 132.98570077 150.34171086 131.61494608 149.12946185 C123.9553655 147.97821866 116.19908783 147.9883076 108.47244425 148.00920734 C107.29923316 148.00835291 106.12602206 148.00749849 104.91725911 148.00661817 C101.69264816 148.00526523 98.46807828 148.00835456 95.24347217 148.01339623 C91.75419876 148.01774236 88.26492702 148.01625137 84.77565165 148.01549396 C78.74078905 148.01497135 72.70593731 148.01809061 66.67107745 148.0237318 C57.9458422 148.03188253 49.22061217 148.03446567 40.49537352 148.03571979 C26.3369045 148.03790471 12.17844126 148.04454958 -1.98002462 148.0540224 C-15.7280712 148.06321103 -29.47611621 148.07028476 -43.22416525 148.07453021 C-44.49677092 148.0749243 -44.49677092 148.0749243 -45.7950858 148.07532635 C-50.05156911 148.07663145 -54.30805244 148.07789514 -58.56453578 148.07913825 C-93.83804595 148.08949341 -129.1115494 148.10709645 -164.38505392 148.12946185 Z " fill="#FFFFFF" transform="translate(1807.3850539177656,840.8705381453037)"/>
<path d="M0 0 C250.47 0 500.94 0 759 0 C761.85705556 5.71411111 761.93515864 10.08556905 760.01513672 16.06933594 C758.57241819 19.71025596 757.02479269 23.29574048 755.4375 26.875 C754.84429492 28.24590333 754.25269914 29.61750397 753.66259766 30.98974609 C752.41779975 33.87778193 751.16406341 36.76168165 749.90283203 39.64257812 C748.07030307 43.83141556 746.26305661 48.03070847 744.46484375 52.234375 C744.02643913 53.25902863 744.02643913 53.25902863 743.57917786 54.30438232 C742.98144636 55.70162579 742.38379585 57.09890391 741.78622437 58.49621582 C740.86143422 60.6566921 739.93456146 62.81626374 739.00708008 64.97558594 C724.73769057 98.20521598 710.81102907 131.5777628 697 165 C682.27162399 200.64218672 667.31834229 236.18503532 652.19955444 271.66339111 C651.78307648 272.64072205 651.36659851 273.61805298 650.9375 274.625 C650.52094147 275.60249207 650.10438293 276.57998413 649.67520142 277.58709717 C641.43762717 296.92270018 633.30939488 316.30301751 625.21337891 335.69824219 C603.80399726 386.98670291 582.12813268 438.15913669 560.32128906 489.27978516 C549.18977679 515.37631081 538.14696707 541.50754977 527.21777344 567.68945312 C524.98428546 573.0390866 522.74664919 578.38697809 520.5078125 583.734375 C520.13584244 584.62282608 519.76387238 585.51127716 519.38063049 586.426651 C517.88040855 590.00966968 516.38001603 593.59261689 514.87948608 597.17550659 C511.08086663 606.2458022 507.28363107 615.31665202 503.4982605 624.39248657 C501.93680333 628.13578699 500.37384137 631.87845835 498.81079102 635.62109375 C498.08739672 637.3543471 497.36468647 639.08788618 496.64282227 640.82177734 C489.92566465 656.95522439 482.95007263 672.96137086 476 689 C225.53 689 -24.94 689 -283 689 C-286.06158939 681.34602654 -283.81207316 675.85231083 -280.9375 668.5625 C-280.51500977 667.46518555 -280.51500977 667.46518555 -280.08398438 666.34570312 C-279.39586753 664.56126454 -278.69885394 662.78026095 -278 661 C-277.34 661 -276.68 661 -276 661 C-275.73579254 660.17100945 -275.73579254 660.17100945 -275.46624756 659.32527161 C-273.72657177 653.97342426 -271.74785216 648.80033019 -269.515625 643.63671875 C-269.18359573 642.86017944 -268.85156647 642.08364014 -268.50947571 641.28356934 C-267.79703269 639.6179676 -267.08306936 637.95301546 -266.3677063 636.28866577 C-264.43896381 631.80002779 -262.52276275 627.30603723 -260.60546875 622.8125 C-260.21515976 621.89840866 -259.82485077 620.98431732 -259.42271423 620.04252625 C-255.754725 611.4439995 -252.1484093 602.82051922 -248.5625 594.1875 C-247.95193322 592.71841246 -247.34133727 591.24933704 -246.73071289 589.78027344 C-245.79580692 587.53101296 -244.86090303 585.28175168 -243.92619324 583.03240967 C-239.27133294 571.83514714 -234.58193781 560.65229856 -229.89599609 549.46801758 C-229.12856653 547.63623642 -228.36115119 545.8044493 -227.59375 543.97265625 C-227.21247955 543.0626033 -226.83120911 542.15255035 -226.43838501 541.21492004 C-223.81742241 534.95700685 -221.20405174 528.69596005 -218.59375 522.43359375 C-210.70411653 503.51610904 -202.72264208 484.64195015 -194.625 465.8125 C-182.72051972 438.12734418 -171.1591941 410.30286221 -159.63671875 382.45703125 C-145.30633565 347.82807712 -130.72434282 313.3115785 -115.9375 278.875 C-106.20918755 256.21799262 -96.61600973 233.50890295 -87.14263916 210.7442627 C-85.11206814 205.86746474 -83.07718224 200.99246692 -81.04296875 196.1171875 C-73.48128346 177.99026147 -65.93564229 159.85678431 -58.4201355 141.71066284 C-45.30034258 110.03689992 -32.05802468 78.41728315 -18.625 46.875 C-18.12232605 45.69434967 -17.6196521 44.51369934 -17.10174561 43.29727173 C-15.66517821 39.92431903 -14.22740592 36.55188318 -12.7890625 33.1796875 C-12.15112762 31.68242882 -12.15112762 31.68242882 -11.50030518 30.15492249 C-9.31051743 25.02629986 -7.08640472 19.91773829 -4.78063965 14.84007263 C-3.85311604 12.65377476 -3.28270797 10.52531486 -2.875 8.1875 C-2.28694686 4.8932023 -1.57975307 3.15950613 0 0 Z M152 197 C141.8271139 220.73673423 131.67750353 244.45351451 121.78210449 268.30224609 C117.95641949 277.521658 114.10417307 286.7299688 110.25 295.9375 C109.87537628 296.83247192 109.50075256 297.72744385 109.11477661 298.64953613 C97.65356657 326.02290561 86.10875163 353.36101018 74.48449707 380.66552734 C65.92714756 400.76736691 57.46586543 420.90851968 49.05664062 441.07275391 C47.41997438 444.99624391 45.77767519 448.91733871 44.13285828 452.8374176 C42.99237324 455.55768834 41.85566934 458.27952591 40.72012329 461.00186157 C39.96247166 462.81523259 39.20042608 464.62676582 38.43823242 466.43823242 C37.99326416 467.5079126 37.5482959 468.57759277 37.08984375 469.6796875 C36.70691162 470.59476074 36.32397949 471.50983398 35.92944336 472.45263672 C35.01222269 474.96650079 34.48896187 477.37427474 34 480 C33.23473575 482.10114365 32.41967293 484.18464565 31.5625 486.25 C31.13066406 487.30703125 30.69882813 488.3640625 30.25390625 489.453125 C29 492 29 492 27 493 C25.97435869 494.90208387 25.97435869 494.90208387 25.04467773 497.25683594 C24.6676622 498.16157654 24.29064667 499.06631714 23.90220642 499.99847412 C23.50006424 500.98382141 23.09792206 501.9691687 22.68359375 502.984375 C22.26707047 503.99211975 21.85054718 504.9998645 21.42140198 506.03814697 C20.53980749 508.17545968 19.66156142 510.31415609 18.78637695 512.45410156 C17.44749094 515.72558774 16.09669408 518.9919569 14.74414062 522.2578125 C13.88990758 524.33303816 13.0363692 526.40854994 12.18359375 528.484375 C11.77942734 529.46162537 11.37526093 530.43887573 10.95884705 531.44573975 C10.58498367 532.36308899 10.2111203 533.28043823 9.82592773 534.22558594 C9.4966478 535.02865173 9.16736786 535.83171753 8.82810974 536.65911865 C7.79773486 539.395378 7.79773486 539.395378 7 544 C104.35 544 201.7 544 302 544 C303.32 541.03 304.64 538.06 306 535 C306.99 534.01 307.98 533.02 309 532 C309.97054282 530.27188997 309.97054282 530.27188997 310.72314453 528.34692383 C311.02910553 527.61375443 311.33506653 526.88058502 311.65029907 526.12519836 C311.9745285 525.32720322 312.29875793 524.52920807 312.6328125 523.70703125 C312.98161469 522.86621506 313.33041687 522.02539886 313.68978882 521.15910339 C314.44495668 519.33649545 315.19674843 517.51248584 315.94555664 515.68725586 C317.55007741 511.77642331 319.17062473 507.87229978 320.79034424 503.96774292 C321.62771143 501.94881579 322.46424991 499.92954476 323.29998779 497.90994263 C326.96438446 489.06029911 330.70071144 480.24246283 334.46130371 471.43334961 C340.65759905 456.91731349 346.79008295 442.37555541 352.875 427.8125 C359.03468522 413.07150705 365.21953246 398.34151025 371.4375 383.625 C371.83063385 382.69444794 372.2237677 381.76389587 372.6288147 380.80514526 C375.81730821 373.25850822 379.00754697 365.71260927 382.19787598 358.16674805 C384.98690513 351.56984554 387.77523825 344.97264946 390.5625 338.375 C390.95589569 337.44383362 391.34929138 336.51266724 391.75460815 335.55328369 C397.90298271 320.99697659 404.01565928 306.42598742 410.10897827 291.84655762 C415.59315935 278.72558832 421.11094265 265.61918626 426.65023804 252.52139282 C435.06478856 232.6279116 435.06478856 232.6279116 443.40118408 212.70159912 C444.16547584 210.86541236 444.93303174 209.03058533 445.70068359 207.19580078 C446.1436377 206.12700684 446.5865918 205.05821289 447.04296875 203.95703125 C447.42477295 203.03897705 447.80657715 202.12092285 448.19995117 201.17504883 C449.11507238 199.07341298 449.11507238 199.07341298 449 197 C350.99 197 252.98 197 152 197 Z " fill="#FFFFFF" transform="translate(1636,134)"/>
<path d="M0 0 C0 227.7 0 455.4 0 690 C-64.35 690 -128.7 690 -195 690 C-198.41674926 686.58325074 -197.11808621 676.02357493 -197.12442017 671.39178467 C-197.12082489 670.320755 -197.11722961 669.24972534 -197.11352539 668.14624023 C-197.11367142 666.99400467 -197.11381744 665.8417691 -197.1139679 664.65461731 C-197.11327512 660.87258984 -197.10551257 657.09061254 -197.09765625 653.30859375 C-197.09578981 650.67586799 -197.09436698 648.04314188 -197.09336853 645.41041565 C-197.09027148 639.20582937 -197.08208019 633.00126089 -197.07201904 626.79668242 C-197.06080718 619.72768687 -197.05533471 612.65869042 -197.05032361 605.58968818 C-197.03989607 591.05978297 -197.02232838 576.52989174 -197 562 C-198.44898682 562.04543945 -198.44898682 562.04543945 -199.92724609 562.09179688 C-235.95230403 563.21249891 -235.95230403 563.21249891 -250 563 C-251.56675476 562.97752197 -251.56675476 562.97752197 -253.16516113 562.95458984 C-261.98550575 562.82394068 -270.80522223 562.66394048 -279.625 562.5 C-282.2890566 562.4514917 -284.95312215 562.40349642 -287.6171875 562.35546875 C-294.07815679 562.23867488 -300.53909081 562.12007008 -307 562 C-306.56357178 562.91773193 -306.12714355 563.83546387 -305.67749023 564.78100586 C-297.76791229 581.42428602 -289.90616857 598.08484174 -282.3125 614.875 C-275.42347971 630.08969088 -275.42347971 630.08969088 -268.45028687 645.26593018 C-267.60160344 647.10286258 -266.75926469 648.94272232 -265.91723633 650.78271484 C-262.5289673 658.08012756 -258.79128108 665.02851124 -254.69018555 671.94091797 C-252.62078672 675.68634153 -250.52694435 679.64000376 -251 684 C-252.32 686.31 -253.64 688.62 -255 691 C-318.36 691 -381.72 691 -447 691 C-457.72498851 668.3583576 -468.44349966 645.71969752 -479 623 C-479.54462891 621.82824219 -480.08925781 620.65648437 -480.65039062 619.44921875 C-483.89997222 612.45664341 -487.14628431 605.46255526 -490.39111328 598.46777344 C-492.55035033 593.81378208 -494.71091209 589.16040634 -496.87158203 584.50708008 C-497.959894 582.16321181 -499.04810967 579.81929882 -500.13623047 577.4753418 C-502.78086739 571.77850135 -505.4264098 566.08208565 -508.07421875 560.38671875 C-514.29820096 546.99596505 -520.50042247 533.59533825 -526.6875 520.1875 C-527.06649445 519.36628662 -527.44548889 518.54507324 -527.83596802 517.69897461 C-531.71018577 509.30393154 -535.58259882 500.9080644 -539.44895935 492.50939941 C-549.52557885 470.62167028 -559.70857303 448.78749741 -570 427 C-584.7223701 395.83196067 -599.1635729 364.53817547 -613.54995728 333.21386719 C-625.18127874 307.88876313 -636.82756673 282.57153287 -648.67504883 257.34667969 C-654.51038518 244.92239046 -660.30039544 232.47735774 -666.06512451 220.0201416 C-666.71430864 218.61734103 -667.36360892 217.21459421 -668.01300049 215.81188965 C-676.29545721 197.92140223 -684.55456464 180.02151863 -692.6875 162.0625 C-699.10537185 147.89193787 -705.6873352 133.80219649 -712.31118774 119.72697449 C-715.37840353 113.20461677 -718.40928046 106.6655422 -721.4375 100.125 C-724.88044802 92.69005888 -728.34013462 85.26383099 -731.83984375 77.85546875 C-732.16932007 77.15794998 -732.49879639 76.46043121 -732.83825684 75.74177551 C-733.17055298 75.03832504 -733.50284912 74.33487457 -733.84521484 73.61010742 C-740.09227076 60.3850611 -746.2651841 47.13022431 -752.3125 33.8125 C-752.63128113 33.11081696 -752.95006226 32.40913391 -753.27850342 31.68618774 C-755.196075 27.46210142 -757.11175412 23.23729304 -759 19 C-759.28001358 18.3761441 -759.56002716 17.75228821 -759.848526 17.10952759 C-762.14876656 11.89467997 -762.18998486 9.4922378 -761 4 C-760.34 3.01 -759.68 2.02 -759 1 C-756.56504387 0.62855518 -756.56504387 0.62855518 -753.425704 0.63364983 C-751.63442687 0.62561492 -751.63442687 0.62561492 -749.80696231 0.61741769 C-748.46818443 0.62667252 -747.1294084 0.63619849 -745.79063416 0.64596558 C-744.37513786 0.64537501 -742.9596416 0.64346328 -741.54414862 0.64034045 C-737.62917283 0.63554872 -733.71444939 0.64958279 -729.79951528 0.6664685 C-725.56275908 0.68145289 -721.32600919 0.67908075 -717.08923149 0.67876434 C-709.68411858 0.68056906 -702.27908796 0.69336053 -694.87400246 0.71323776 C-683.96397149 0.74239392 -673.05397406 0.75394525 -662.14390909 0.76123782 C-644.00877997 0.77369169 -625.87369052 0.79873461 -607.73858643 0.83081055 C-580.95122274 0.87789856 -554.16386137 0.90411387 -527.37646484 0.92382812 C-526.26738274 0.9246477 -525.15830063 0.92546727 -524.01560998 0.92631167 C-510.55507459 0.93620519 -497.09453876 0.94529511 -483.6340026 0.95405753 C-475.74433581 0.95926957 -467.8546699 0.96529206 -459.96500397 0.9716568 C-401.8759523 1.01811288 -343.78795783 0.99564664 -285.69921875 0.7890625 C-284.91183963 0.78626775 -284.12446052 0.78347301 -283.31322142 0.78059357 C-260.25043207 0.69842137 -237.18770676 0.60258402 -214.125 0.5 C-213.43731716 0.49694615 -212.74963432 0.4938923 -212.0411126 0.4907459 C-203.25726404 0.45173567 -194.47341743 0.41230473 -185.6895715 0.37270808 C-181.74874156 0.355011 -177.8079108 0.33750804 -173.86707973 0.32006264 C-171.29113194 0.30862883 -168.71518417 0.29718673 -166.13923645 0.28573608 C-164.88260592 0.28015784 -163.62597539 0.2745796 -162.33126515 0.26883233 C-156.49984245 0.24269373 -150.66842914 0.21555403 -144.8370266 0.18523026 C-96.55726403 -0.065727 -48.28183788 0 0 0 Z M-476 198 C-474.35530004 202.9813668 -474.35530004 202.9813668 -472.35864258 207.73754883 C-471.89004066 208.75026855 -471.89004066 208.75026855 -471.41197205 209.78344727 C-471.07621658 210.50072998 -470.74046112 211.2180127 -470.39453125 211.95703125 C-470.03875504 212.72418457 -469.68297882 213.49133789 -469.31642151 214.28173828 C-468.55066735 215.93224228 -467.78350678 217.58209437 -467.01507568 219.23135376 C-464.96066192 223.6408412 -462.91627129 228.05497301 -460.87109375 232.46875 C-460.45680115 233.36221634 -460.04250854 234.25568268 -459.61566162 235.17622375 C-456.12911764 242.70255519 -452.69624291 250.25235059 -449.27993774 257.8107605 C-443.67585155 270.20710575 -437.95500611 282.54298653 -432.13604736 294.83990479 C-428.15894851 303.24494672 -424.22051305 311.66563664 -420.3515625 320.12109375 C-419.96569977 320.96404999 -419.57983704 321.80700623 -419.18228149 322.67550659 C-417.3105531 326.76735348 -415.44361848 330.86131596 -413.58251953 334.95800781 C-412.90404179 336.44469361 -412.22549701 337.9313488 -411.546875 339.41796875 C-411.24649323 340.08316025 -410.94611145 340.74835175 -410.6366272 341.43370056 C-408.65119911 345.77385424 -406.41843873 349.88460351 -404 354 C-403.34 354 -402.68 354 -402 354 C-401.690625 354.94875 -401.38125 355.8975 -401.0625 356.875 C-400.12605258 359.86080408 -400.12605258 359.86080408 -399 362 C-396.96545589 362.46888776 -396.96545589 362.46888776 -394.46124268 362.62471008 C-393.47549633 362.70747539 -392.48974998 362.79024069 -391.47413254 362.87551403 C-390.3782645 362.95309098 -389.28239647 363.03066793 -388.15332031 363.1105957 C-386.99770222 363.19488736 -385.84208412 363.27917902 -384.6514473 363.36602497 C-369.77564518 364.34330698 -354.89208174 364.2746746 -339.99117184 364.23571944 C-335.81355423 364.22674533 -331.63593827 364.22870003 -327.45831299 364.2290802 C-320.45591323 364.22815208 -313.45355756 364.2195839 -306.45117188 364.20581055 C-298.4201455 364.19006967 -290.3891671 364.18481387 -282.3581264 364.1855461 C-273.70634399 364.18622767 -265.05457941 364.1792572 -256.40280247 364.1700995 C-253.95237978 364.16799495 -251.50196007 364.16726206 -249.05153656 364.16686058 C-245.16719512 364.16583688 -241.28289204 364.15958063 -237.39856339 364.14969444 C-235.99518444 364.14683804 -234.59180107 364.14552956 -233.18841934 364.14612198 C-221.08747925 364.14929022 -209.1134469 363.55061122 -197 363 C-197 308.55 -197 254.1 -197 198 C-289.07 198 -381.14 198 -476 198 Z " fill="#FFFFFF" transform="translate(762,133)"/>
<path d="M0 0 C252.45 0 504.9 0 765 0 C766.33245558 3.99736673 764.93971392 6.22776598 763.34375 9.90234375 C762.90400848 10.9463031 762.90400848 10.9463031 762.4553833 12.01135254 C761.47901055 14.32388462 760.48941622 16.63052198 759.5 18.9375 C758.80791791 20.57062093 758.11685311 22.2041733 757.42675781 23.83813477 C755.9934729 27.22969263 754.55581887 30.61934915 753.11523438 34.0078125 C751.16543251 38.60083636 749.24031954 43.20370832 747.328125 47.8125 C747.03379578 48.52188721 746.73946655 49.23127441 746.43621826 49.9621582 C745.84107757 51.39694434 745.24600521 52.83175883 744.65100098 54.26660156 C735.93883223 75.25795896 727.07172598 96.18429884 718.21929932 117.11676025 C714.62382951 125.61885757 711.02976275 134.12154715 707.4375 142.625 C707.04437622 143.55553192 706.65125244 144.48606384 706.24621582 145.4447937 C700.09557376 160.00645297 693.98123688 174.58304141 687.88497925 189.1675415 C681.72468424 203.90378812 675.52194939 218.62174874 669.30224609 233.33300781 C663.50637488 247.04351834 657.74043969 260.76619291 652 274.5 C645.46876431 290.12575967 638.89725019 305.73406213 632.30224609 321.33300781 C626.50637448 335.04351928 620.74063735 348.76627498 615 362.5 C606.51731639 382.79152768 597.96809395 403.05460546 589.40429688 423.31201172 C585.77253526 431.90317843 582.14392353 440.49567525 578.51565552 449.08831787 C577.31392729 451.93412004 576.11192831 454.77980774 574.90991211 457.62548828 C571.26160699 466.26400492 567.61736775 474.90417116 563.98828125 483.55078125 C556.7163371 500.87300753 549.39023495 518.17143855 542.00262451 535.44470215 C541.04567542 537.68257191 540.08949347 539.92076988 539.13409424 542.15930176 C537.80152075 545.28045049 536.4657185 548.40019609 535.12890625 551.51953125 C534.7255455 552.46546646 534.32218475 553.41140167 533.90660095 554.38600159 C533.5372493 555.24580124 533.16789764 556.10560089 532.78735352 556.99145508 C532.46477066 557.74509842 532.14218781 558.49874176 531.80982971 559.27522278 C531 561 531 561 530 562 C528.22229028 562.09241268 526.44085038 562.11342855 524.66075039 562.10743046 C522.91258263 562.10519194 522.91258263 562.10519194 521.12909836 562.10290819 C519.83243447 562.0961044 518.53577058 562.08930061 517.19981384 562.08229065 C515.82126855 562.07860015 514.44272201 562.07535005 513.06417471 562.07250541 C509.25828434 562.06336482 505.45244085 562.0479306 501.64657581 562.03152263 C497.54908806 562.01494123 493.45158478 562.00411982 489.3540802 561.99261475 C482.24898371 561.97186906 475.14390745 561.9474376 468.03883171 561.92053413 C457.76596352 561.88164105 447.49308331 561.84825791 437.22019166 561.81623887 C420.55490192 561.7641452 403.88963051 561.70756774 387.22436523 561.64819336 C371.03133865 561.590511 354.83830711 561.53492618 338.64526367 561.48217773 C337.64786987 561.47892802 336.65047607 561.4756783 335.62285822 561.4723301 C330.61944917 561.45604093 325.61603998 561.43979316 320.61263072 561.42356598 C279.07506357 561.28879672 237.53752971 561.14593847 196 561 C196 603.57 196 646.14 196 690 C131.32 690 66.64 690 0 690 C0 462.3 0 234.6 0 0 Z M197 197 C197 252.11 197 307.22 197 364 C233.21581922 364.02913306 233.21581922 364.02913306 269.43164062 364.04882812 C284.19962918 364.05476245 298.96761203 364.06174 313.7355957 364.07543945 C324.49087976 364.08541178 335.24615919 364.09185951 346.00144774 364.09408849 C351.69539275 364.09539126 357.38932453 364.09844973 363.0832653 364.10573006 C368.44542677 364.11253046 373.80756958 364.11460877 379.16973495 364.11310768 C381.13488809 364.1133822 383.10004187 364.11536343 385.06519127 364.11920547 C387.75518905 364.12420555 390.44511707 364.12297511 393.13511658 364.12025452 C393.9065454 364.12316736 394.67797423 364.1260802 395.47277969 364.12908131 C399.28976902 364.11869927 403.09786084 364.00018353 406.90561771 363.73076534 C407.63338478 363.68326891 408.36115185 363.63577248 409.11097246 363.58683676 C411.16477586 363.14829493 411.16477586 363.14829493 412.39505905 361.17820412 C413.40970997 359.20204128 413.40970997 359.20204128 414.1484375 357.10546875 C415 355 415 355 416.38305664 353.21728516 C418.20426879 350.7198899 419.42626732 348.22433143 420.72265625 345.41796875 C421.25181641 344.2784375 421.78097656 343.13890625 422.32617188 341.96484375 C422.90502936 340.70576661 423.48380264 339.44665075 424.0625 338.1875 C424.6760277 336.86179185 425.28997075 335.53627585 425.90429688 334.2109375 C427.58473379 330.58214934 429.25907987 326.95058189 430.9319458 323.31829834 C432.76354804 319.34265699 434.59885022 315.36872362 436.43359375 311.39453125 C438.72790401 306.42413335 441.0216372 301.45347137 443.31347656 296.48193359 C447.95559037 286.41406365 452.61835118 276.35621338 457.3125 266.3125 C457.59510681 265.70780884 457.87771362 265.10311768 458.16888428 264.48010254 C459.01231393 262.67553002 459.85576625 260.87096809 460.69921875 259.06640625 C465.61375115 248.55101909 470.5009347 238.02295795 475.38134766 227.49169922 C476.49743734 225.08411029 477.61418421 222.67683734 478.73193359 220.27001953 C480.42765406 216.61852957 482.1202116 212.96558185 483.8125 209.3125 C484.33473145 208.18875977 484.85696289 207.06501953 485.39501953 205.90722656 C485.8692334 204.88209961 486.34344727 203.85697266 486.83203125 202.80078125 C487.25202393 201.89497314 487.6720166 200.98916504 488.10473633 200.0559082 C489.06654126 198.22092234 489.06654126 198.22092234 489 197 C392.64 197 296.28 197 197 197 Z " fill="#FFFFFF" transform="translate(818,133)"/>
<path d="M0 0 C0.74632553 -0.00367669 1.49265105 -0.00735338 2.26159251 -0.01114148 C4.76958625 -0.02217989 7.27753857 -0.02602238 9.78555298 -0.02983093 C11.58081697 -0.03609534 13.37607967 -0.04274212 15.17134094 -0.04974365 C20.0535702 -0.06715249 24.93578967 -0.07770459 29.81804228 -0.08594918 C32.8669435 -0.09109843 35.91584168 -0.09717412 38.96474075 -0.10346031 C48.50030085 -0.12251004 58.03585319 -0.13674298 67.57142866 -0.14507228 C78.5860979 -0.15485207 89.60056657 -0.18119186 100.61516511 -0.22157317 C109.12478921 -0.25170284 117.6343557 -0.26653806 126.14403212 -0.26985329 C131.2286739 -0.2722069 136.31310134 -0.28120798 141.397686 -0.30631447 C146.17968615 -0.32954587 150.96133008 -0.33384836 155.74337196 -0.32355309 C157.4989738 -0.32305645 159.25459288 -0.32941438 161.01014137 -0.34310913 C163.40619757 -0.3607556 165.80096523 -0.35375868 168.19702148 -0.34057617 C168.89245446 -0.35154542 169.58788743 -0.36251466 170.30439413 -0.37381631 C173.75486564 -0.32795252 175.67292675 0.11473178 178.63390541 1.94193745 C181.06881515 4.50914581 181.62900477 6.51573684 181.85559082 10.03266907 C181.636055 13.60086004 180.3267205 16.62121161 178.82315063 19.80342102 C178.35007729 20.86151978 178.35007729 20.86151978 177.8674469 21.94099426 C176.85855158 24.18484649 175.8236191 26.41555118 174.78799438 28.64717102 C174.12681641 30.11256326 173.46729817 31.57870554 172.80947876 33.04560852 C168.96573765 41.56169229 164.88122755 49.94443864 160.67007446 58.28388977 C157.55547012 64.4537432 154.54691875 70.67528167 151.53799438 76.89717102 C151.21812561 77.55802704 150.89825684 78.21888306 150.56869507 78.89976501 C145.53857593 89.30024419 140.62142777 99.74900395 135.77920532 110.23847961 C131.33578087 119.85872232 126.82066118 129.44372201 122.28799438 139.02217102 C115.2859744 153.82372668 108.33873106 168.64988032 101.42715454 183.49385071 C98.82277645 189.08646917 96.21273026 194.67644299 93.60324097 200.26667786 C92.72768711 202.14247329 91.8522928 204.01834309 90.97695923 205.89424133 C88.34362707 211.53764782 85.70994324 217.18088927 83.07484436 222.82347107 C75.46655362 239.11526979 67.87886061 255.4164512 60.31240845 271.72773743 C58.76131551 275.06998477 57.20855444 278.41145139 55.65518188 281.75263977 C47.48241732 299.33478632 39.35385804 316.93716218 31.23327637 334.54345703 C28.54736538 340.36651849 25.85962594 346.1887331 23.17080688 352.01045227 C19.79508018 359.31948894 16.42142731 366.62947896 13.04988098 373.94044495 C11.21504405 377.91898138 9.379326 381.89710563 7.54141235 385.8742218 C-0.99750666 404.35359877 -9.42067226 422.87700024 -17.65536499 441.49409485 C-21.90855957 451.10550788 -26.22356146 460.68391591 -30.65097046 470.2167511 C-34.0106629 477.47409901 -37.11903482 484.78440582 -40.27450562 492.14717102 C115.81549438 492.47717102 271.90549438 492.80717102 432.72549438 493.14717102 C445.60395318 557.53946498 433.72549438 624.47965834 433.72549438 690.14717102 C182.92549438 690.14717102 -67.87450562 690.14717102 -326.27450562 690.14717102 C-329.05393212 677.63975174 -324.5509806 670.25298508 -319.29714966 659.28303528 C-317.49994135 655.52943888 -315.72061568 651.76735722 -313.93856812 648.00654602 C-313.56140656 647.21173828 -313.184245 646.41693054 -312.7956543 645.59803772 C-308.35316311 636.22579102 -304.00180491 626.81154436 -299.64950562 617.39717102 C-298.0339803 613.90481684 -296.4180156 610.41266615 -294.80184937 606.92060852 C-294.21697502 605.65671799 -294.21697502 605.65671799 -293.62028503 604.36729431 C-290.16823828 596.91076385 -286.69299733 589.46522161 -283.21200562 582.02217102 C-276.0090571 566.61241175 -268.88586212 551.1660645 -261.76577759 535.71788025 C-259.06566825 529.86042041 -256.36070031 524.00522198 -253.65341187 518.15107727 C-246.6691741 503.04512703 -239.705852 487.93098045 -232.83700562 472.77217102 C-220.57637625 445.72351456 -208.03727904 418.80405025 -195.33309937 391.96113586 C-183.40134445 366.74989341 -171.68969666 341.4362162 -159.96983337 316.12597656 C-157.13823138 310.01114182 -154.30462721 303.89723832 -151.46981812 297.78388977 C-143.72376057 281.07822137 -135.98728842 264.36823075 -128.27450562 247.64717102 C-114.89064998 218.63282489 -101.46067971 189.6400964 -87.93075562 160.69355774 C-86.25117869 157.09722307 -84.57481761 153.49939976 -82.89950562 149.90107727 C-76.18364836 135.48055801 -69.4179008 121.0845389 -62.61569214 106.70454407 C-57.41848985 95.71531048 -52.26521409 84.70734298 -47.16366577 73.67329407 C-44.22506811 67.32462439 -41.26104142 60.98922989 -38.26669312 54.66670227 C-37.57128217 53.19706516 -36.87588836 51.72741995 -36.18051147 50.25776672 C-35.13847893 48.05549359 -34.09592945 45.85347563 -33.0513916 43.65238953 C-29.66031339 36.5017057 -26.31496461 29.3504906 -23.24716187 22.05342102 C-22.57753418 20.46074402 -22.57753418 20.46074402 -21.89437866 18.83589172 C-21.09495375 16.90858628 -20.30995745 14.97519675 -19.54330444 13.03462219 C-17.28434322 7.56108563 -15.22638809 4.47276502 -10.27450562 1.14717102 C-6.77772921 -0.01842112 -3.63750659 -0.00095817 0 0 Z " fill="#FFFFFF" transform="translate(328.2745056152344,841.8528289794922)"/>
<path d="M0 0 C63.03 0 126.06 0 191 0 C191 162.36 191 324.72 191 492 C346.2008487 491.80189475 346.2008487 491.80189475 501.40161133 491.54956055 C531.34899902 491.52697754 531.34899902 491.52697754 545.34745789 491.52278137 C555.1707197 491.51810379 564.99384061 491.4997004 574.81706238 491.47212219 C586.13343423 491.44039874 597.44967015 491.42579592 608.76608686 491.43277525 C614.56068391 491.4358004 620.35497674 491.43085122 626.14951861 491.40392435 C631.38111003 491.37975999 636.61217948 491.37827223 641.84379387 491.39549446 C643.74284047 491.39762884 645.6419186 491.39116638 647.5409025 491.37558711 C650.11440248 491.35570164 652.68599094 491.36621927 655.25945759 491.38476086 C656.00886006 491.37162573 656.75826252 491.35849061 657.53037416 491.34495745 C659.6009267 491.37900752 659.6009267 491.37900752 663 492 C664.91982001 494.40437537 664.91982001 494.40437537 666 497 C666.33772934 497.70792694 666.67545868 498.41585388 667.02342224 499.14523315 C667.32949905 499.86284821 667.63557587 500.58046326 667.95092773 501.31982422 C668.30738373 502.15064514 668.66383972 502.98146606 669.03109741 503.83746338 C669.6015831 505.18248932 669.6015831 505.18248932 670.18359375 506.5546875 C670.59082672 507.50680115 670.99805969 508.45891479 671.41763306 509.43988037 C672.76110363 512.58343252 674.09933349 515.72918674 675.4375 518.875 C676.38243729 521.08915537 677.32767293 523.30318343 678.27319336 525.51708984 C680.71383627 531.23455832 683.14992372 536.95395469 685.58435059 542.67407227 C686.92953712 545.83445445 688.27560023 548.99446136 689.62207031 552.15429688 C694.1783851 562.84721862 698.72923149 573.5424552 703.27592468 584.23947144 C706.59844086 592.05625723 709.92323069 599.87207335 713.24958801 607.68722534 C715.31958115 612.55062409 717.38887237 617.41431813 719.45629883 622.27880859 C723.37857123 631.50545923 727.30900123 640.72842961 731.26330566 649.94140625 C733.14244369 654.32069798 735.01766919 658.70165997 736.89257812 663.08276367 C737.79230677 665.18207657 738.69397737 667.28055833 739.59765625 669.37817383 C740.84598405 672.27611092 742.08775226 675.17677602 743.328125 678.078125 C743.70205383 678.9413739 744.07598267 679.8046228 744.46124268 680.69403076 C744.79790955 681.48497131 745.13457642 682.27591187 745.48144531 683.09082031 C745.77641907 683.7773468 746.07139282 684.46387329 746.37530518 685.17120361 C747 687 747 687 747 690 C498.84 690 250.68 690 -5 690 C-5.103125 577.078125 -5.20625 464.15625 -5.3125 347.8125 C-5.35802002 312.09620361 -5.40354004 276.37990723 -5.45043945 239.58129883 C-5.47302246 196.12243652 -5.47302246 196.12243652 -5.47721863 175.80741882 C-5.48220433 160.61276642 -5.50381043 145.41822447 -5.53336714 130.22360312 C-5.56307486 114.74286188 -5.57419643 99.26219075 -5.56722475 83.78142206 C-5.56362696 74.56760488 -5.57368253 65.35404774 -5.60403798 56.14027848 C-5.62270422 50.06438265 -5.62340924 43.98866068 -5.6091767 37.91275315 C-5.60158059 34.44699765 -5.602081 30.9817431 -5.62441289 27.51604021 C-5.64431152 23.78129346 -5.63376847 20.04786207 -5.61523914 16.31313801 C-5.62837427 15.22724935 -5.64150939 14.14136069 -5.65504255 13.02256631 C-5.64380603 12.02948616 -5.6325695 11.03640601 -5.62099248 10.01323253 C-5.62177238 9.15923861 -5.62255229 8.30524469 -5.62335582 7.42537217 C-5 5 -5 5 0 0 Z " fill="#FFFFFF" transform="translate(823,842)"/>
<path d="" fill="#FFFFFF" transform="translate(0,0)"/>
<path d="" fill="#FFFFFF" transform="translate(0,0)"/>
<path d="" fill="#FFFFFF" transform="translate(0,0)"/>
<path d="" fill="#FFFFFF" transform="translate(0,0)"/>
<path d="" fill="#FFFFFF" transform="translate(0,0)"/>
</svg>