<svg xmlns="http://www.w3.org/2000/svg" xmlns:xlink="http://www.w3.org/1999/xlink" version="1.0" id="Ebene_1" x="0px" y="0px" style="enable-background:new 0 0 384 75.7;" xml:space="preserve" viewBox="0 0 384 75.6">
<style type="text/css">
	.st0{fill:#004998;}
	.st1{fill:#FFFFFF;}
	.st2{fill:#E52D23;}
</style>
<g id="hammer_logo_00000003800269143793949800000014029422139081726854_">
	<path class="st0" d="M15.6,5.6C14.8,7.7,0,48.4,0,48.4h359.6c4.4,0,7.8-2.7,9.1-6.4C370.4,37.5,384,0,384,0H24.1   C19.6,0,16.9,2,15.6,5.6"/>
	<path class="st1" d="M278.7,30.4c0,0,0.2-0.5,0.4-1.1c0.4-1,1.3-1.4,1.9-1.4h6.9c1.1,0,1.1,0.8,0.9,1.4c-0.2,0.4-0.4,1-0.4,1H278.7   z M144.9,29.4l-2.3,6.3h-10.5c0,0,1.3-3.7,1.8-4.8c0.4-1.2,1.5-1.5,2-1.5C136.4,29.4,144.9,29.4,144.9,29.4 M337.4,25l0.5-1.4   h-23.5c-1.5,0-5.9,0.7-7.6,5.3c-1.1,2.9-2.5,6.9-2.5,6.9h-27.5l1.1-3h18.4c0,0,0.7-1.8,1.3-3.5c0.7-1.9,1.2-5.7-3.3-5.7h-17   c-1.7,0-6.1,0.6-7.8,5.5c-0.8,2.2-2.4,6.7-2.4,6.7h-9.4c0,0,1.9-5.1,2.4-6.6c0.7-1.8,1-5.5-3.5-5.5H218l-4.4,12.1l-9.2,0   c0,0,1.6-4.5,2.3-6.3c1-2.7,0.6-5.8-3.5-5.8c-4.9,0-38,0-38,0l-4.4,12.1h-9.4l4.4-12.1h-23.1c-2.1,0-5.9,1.2-7.4,5.2   c-1,2.9-2.5,6.9-2.5,6.9h-9.9l10.8-29.7h-8.1c-0.7,0-1.6,0.4-1.9,1.4c-0.3,0.7-10.3,28.3-10.3,28.3l-13.9,0l10.7-29.7   c0,0-7.3,0-7.9,0c-0.8,0-1.7,0.4-2.1,1.4C90,7.9,79.9,35.7,79.9,35.7H49.5c-0.7,0-1.6,0.5-2,1.4c-0.3,0.9-1.6,4.4-1.6,4.4h31.9   l-2.5,6.9h9.5l2.5-6.9h14l-2.5,6.9h9.5l2.5-6.9h57.2l4.4-12.1h9.1l-4.4,12.1h8.5l4.4-12.1c0,0,6.5,0,7.7,0c1.2,0,1.1,0.9,0.9,1.5   c-0.1,0.3-2.3,6.4-3.3,9.2c-0.1,0.3-0.3,1.4,0.9,1.4h24.5l4.4-12.1h9.1l-4.4,12.1h8.6l4.4-12.1c0,0,6.5,0,7.7,0   c1.2,0,1.1,0.9,0.9,1.5c-0.1,0.3-3.3,9.2-3.3,9.2s-0.5,1.4,0.9,1.4h62c0,0,3.4-9.2,3.8-10.6c0.5-1.3,1.5-1.5,2.2-1.5   c0.8,0,13.2,0,17.4,0c1.4,0,1.9-1.4,1.9-1.4L337.4,25L337.4,25z"/>
	<path class="st0" d="M271.7,69.7c-0.9,2.4,0.3,2.9,2.3,2.9c2,0,3.5-1.1,4-2.6c0.9-2.7-3.3-2.7-2.8-4c0.2-0.6,0.6-0.9,1.1-0.9   c0.3,0,0.4,0,0.5,0.2c0.1,0.2,0.1,0.5-0.1,1.1h2.3c0.7-1.8-0.5-2.6-2.1-2.6c-1.5,0-3.5,0.6-4.1,2.4c-0.9,2.7,3.4,2.3,2.8,4.1   c-0.2,0.6-0.7,0.9-1.2,0.9c-0.5,0-0.7-0.1-0.7-0.4c0-0.3,0.1-0.6,0.2-1H271.7z M268.5,67c0.7-2.2-0.2-3.2-2.4-3.2   c-3.1,0-4.1,2-4.9,4.3c-0.9,2.7-1.1,4.5,1.9,4.5c2.2,0,3.8-1,4.6-3.3h-2.4c-0.4,1.1-0.9,1.8-1.7,1.8c-0.9,0-0.9-0.6,0-3.1   c0.6-1.8,1-2.7,2-2.7c0.7,0,0.9,0.4,0.5,1.7H268.5z M256.8,60.4l-0.6,1.9h2.4l0.6-1.9H256.8z M258,64h-2.4l-2.8,8.5h2.4L258,64z    M246.5,65.5h1l-1.7,5.2c-0.2,0.5-0.4,1.9,1.7,1.9c0.6,0,0.9-0.1,1.3-0.1l0.5-1.5c-0.1,0-0.3,0-0.4,0c-0.8,0-0.6-0.4-0.4-1.1   l1.5-4.5h1.2l0.5-1.5h-1.2l0.8-2.4l-2.7,1.1l-0.5,1.3h-1L246.5,65.5z M235.3,69.7c-0.9,2.4,0.3,2.9,2.3,2.9c2,0,3.5-1.1,4-2.6   c0.9-2.7-3.3-2.7-2.8-4c0.2-0.6,0.6-0.9,1.1-0.9c0.3,0,0.4,0,0.5,0.2c0.1,0.2,0.1,0.5-0.1,1.1h2.3c0.7-1.8-0.5-2.6-2.1-2.6   c-1.5,0-3.5,0.6-4.1,2.4c-0.9,2.7,3.4,2.3,2.8,4.1c-0.2,0.6-0.7,0.9-1.2,0.9c-0.5,0-0.7-0.1-0.7-0.4c0-0.3,0.1-0.6,0.2-1H235.3z    M231.6,60.4l-0.6,1.9h2.4l0.6-1.9H231.6z M232.8,64h-2.4l-2.8,8.5h2.4L232.8,64z M223.3,64l-0.3,1h0c-0.1-0.8-0.7-1.2-1.5-1.2   c-2.5,0-3.3,2.4-3.9,4.2c-0.6,1.9-1.6,4.3,1,4.3c0.8,0,1.6-0.3,2.1-1h0l-0.5,1.6c-0.3,0.9-0.8,1.4-1.3,1.4c-0.4,0-0.6-0.1-0.7-0.3   c-0.1-0.2,0-0.5,0.1-0.9h-2.3c-0.6,2.1,0.7,2.5,2.5,2.5c3.3,0,4-2.3,4.2-2.9l3-8.8H223.3z M219.6,68.5c0.9-2.6,1.2-3.2,2.1-3.2   c0.9,0,0.6,1.1,0,2.9c-0.6,1.8-1,2.7-1.9,2.7C218.7,70.9,219.4,69.3,219.6,68.5 M208.2,72.6c3.1,0,4.1-1.9,5-4.5   c0.8-2.3,1.1-4.3-2-4.3c-3.1,0-4.1,2-4.9,4.3C205.4,70.8,205.1,72.6,208.2,72.6 M208.7,71.1c-0.9,0-0.9-0.6,0-3.1   c0.6-1.8,1-2.7,2-2.7c1,0,0.8,0.9,0.2,2.7C210,70.6,209.6,71.1,208.7,71.1 M201.2,72.5l0.7-2h-3.8l3.4-10.1h-2.5l-4.1,12.1H201.2z    M183.5,72.5l4.1-12.1h-2.4l-1.5,4.4h0c-0.2-0.7-0.7-1-1.6-1c-2.4,0-3.2,2.6-3.8,4.3c-0.6,1.7-1.6,4.5,0.9,4.5   c0.9,0,1.7-0.3,2.4-1.1h0l-0.3,0.9H183.5z M180.6,71.2c-0.9,0-0.7-0.9,0-3c0.6-1.7,0.9-2.9,2-2.9c1,0,0.6,1.2,0,2.9   C181.9,70.3,181.4,71.2,180.6,71.2 M173.8,68.6c1-2.7,1.3-4.8-1.9-4.8c-3.1,0-4.1,2-4.9,4.3c-0.9,2.7-1.1,4.5,1.9,4.5   c1.1,0,2-0.3,2.8-0.8c0.7-0.5,1.3-1.3,1.6-2.2h-2.4c-0.2,0.7-0.7,1.5-1.5,1.5c-1,0-0.6-1.5-0.2-2.5H173.8z M169.8,67.3   c0.2-0.7,0.7-2,1.7-2c1.1,0,0.7,1.2,0.4,2H169.8z M163.2,67c0.7-2.2-0.2-3.2-2.4-3.2c-3.1,0-4.1,2-4.9,4.3   c-0.9,2.7-1.1,4.5,1.9,4.5c2.2,0,3.8-1,4.6-3.3H160c-0.4,1.1-0.9,1.8-1.7,1.8c-0.9,0-0.9-0.6,0-3.1c0.6-1.8,1-2.7,2-2.7   c0.7,0,0.9,0.4,0.5,1.7H163.2z M148.7,64h-2.4l-2.8,8.5h2.4l2-5.8c0.3-0.8,0.6-1.3,1.3-1.3c0.8,0,0.7,0.6,0.4,1.3l-2,5.8h2.4   l2.3-6.8c0.4-1.2-0.4-1.8-1.5-1.8c-0.9,0-1.6,0.3-2.3,1h0L148.7,64z M140.6,66.7c0.5-1.5,0.6-2.8-2.4-2.8c-0.9,0-1.7,0.2-2.4,0.6   c-0.7,0.4-1.2,1-1.6,2.1h2.3c0.2-0.7,0.5-1.3,1.3-1.3c0.9,0,0.8,0.5,0.5,1.2l-0.2,0.7c-2.2,0-4.4,0.1-5.3,2.9   c-0.5,1.5-0.3,2.7,1.3,2.7c1,0,1.9-0.4,2.6-1.3h0l-0.3,1.1h2.2c0.1-0.5,0.2-1.1,0.4-1.6L140.6,66.7z M137.7,68.4   c-0.3,0.9-0.7,2.8-2.1,2.8c-0.8,0-0.6-0.7-0.4-1.3C135.7,68.3,136.6,68.4,137.7,68.4 M123.5,72.5h2.6l5.2-8.5h-2.3l-3.4,6.4h0   l0.9-6.4H124L123.5,72.5z M117.3,72.5l4.1-12.1H119l-1.5,4.4h0c-0.2-0.7-0.7-1-1.6-1c-2.4,0-3.2,2.6-3.8,4.3   c-0.6,1.7-1.6,4.5,0.9,4.5c0.9,0,1.7-0.3,2.4-1.1h0l-0.3,0.9H117.3z M114.4,71.2c-0.9,0-0.7-0.9,0-3c0.6-1.7,0.9-2.9,2-2.9   c1,0,0.6,1.2,0,2.9C115.7,70.3,115.2,71.2,114.4,71.2 M104.6,67.9h-2.4l2.9-5.2h0L104.6,67.9z M99.5,72.5l1.6-2.7h3.5l-0.2,2.7h2.7   l0.8-12.1h-3.3L97,72.5H99.5z"/>
	<polygon class="st2" points="61.9,48.4 316.5,48.4 314.4,53.9 59.9,53.9  "/>
	<path id="advanced_logistics_00000147928474413966645700000013412029902674587817_" class="st0" d="M271.7,69.7   c-0.9,2.4,0.3,2.9,2.3,2.9c2,0,3.5-1.1,4-2.6c0.9-2.7-3.3-2.7-2.8-4c0.2-0.6,0.6-0.9,1.1-0.9c0.3,0,0.4,0,0.5,0.2   c0.1,0.2,0.1,0.5-0.1,1.1h2.3c0.7-1.8-0.5-2.6-2.1-2.6c-1.5,0-3.5,0.6-4.1,2.4c-0.9,2.7,3.4,2.3,2.8,4.1c-0.2,0.6-0.7,0.9-1.2,0.9   c-0.5,0-0.7-0.1-0.7-0.4c0-0.3,0.1-0.6,0.2-1H271.7z M268.5,67c0.7-2.2-0.2-3.2-2.4-3.2c-3.1,0-4.1,2-4.9,4.3   c-0.9,2.7-1.1,4.5,1.9,4.5c2.2,0,3.8-1,4.6-3.3h-2.4c-0.4,1.1-0.9,1.8-1.7,1.8c-0.9,0-0.9-0.6,0-3.1c0.6-1.8,1-2.7,2-2.7   c0.7,0,0.9,0.4,0.5,1.7H268.5z M256.8,60.4l-0.6,1.9h2.4l0.6-1.9H256.8z M258,64h-2.4l-2.8,8.5h2.4L258,64z M246.5,65.5h1l-1.7,5.2   c-0.2,0.5-0.4,1.9,1.7,1.9c0.6,0,0.9-0.1,1.3-0.1l0.5-1.5c-0.1,0-0.3,0-0.4,0c-0.8,0-0.6-0.4-0.4-1.1l1.5-4.5h1.2l0.5-1.5h-1.2   l0.8-2.4l-2.7,1.1l-0.5,1.3h-1L246.5,65.5z M235.3,69.7c-0.9,2.4,0.3,2.9,2.3,2.9c2,0,3.5-1.1,4-2.6c0.9-2.7-3.3-2.7-2.8-4   c0.2-0.6,0.6-0.9,1.1-0.9c0.3,0,0.4,0,0.5,0.2c0.1,0.2,0.1,0.5-0.1,1.1h2.3c0.7-1.8-0.5-2.6-2.1-2.6c-1.5,0-3.5,0.6-4.1,2.4   c-0.9,2.7,3.4,2.3,2.8,4.1c-0.2,0.6-0.7,0.9-1.2,0.9c-0.5,0-0.7-0.1-0.7-0.4c0-0.3,0.1-0.6,0.2-1H235.3z M231.6,60.4l-0.6,1.9h2.4   l0.6-1.9H231.6z M232.8,64h-2.4l-2.8,8.5h2.4L232.8,64z M223.3,64l-0.3,1h0c-0.1-0.8-0.7-1.2-1.5-1.2c-2.5,0-3.3,2.4-3.9,4.2   c-0.6,1.9-1.6,4.3,1,4.3c0.8,0,1.6-0.3,2.1-1h0l-0.5,1.6c-0.3,0.9-0.8,1.4-1.3,1.4c-0.4,0-0.6-0.1-0.7-0.3c-0.1-0.2,0-0.5,0.1-0.9   h-2.3c-0.6,2.1,0.7,2.5,2.5,2.5c3.3,0,4-2.3,4.2-2.9l3-8.8H223.3z M219.6,68.5c0.9-2.6,1.2-3.2,2.1-3.2c0.9,0,0.6,1.1,0,2.9   c-0.6,1.8-1,2.7-1.9,2.7C218.7,70.9,219.4,69.3,219.6,68.5 M208.2,72.6c3.1,0,4.1-1.9,5-4.5c0.8-2.3,1.1-4.3-2-4.3   c-3.1,0-4.1,2-4.9,4.3C205.4,70.8,205.1,72.6,208.2,72.6 M208.7,71.1c-0.9,0-0.9-0.6,0-3.1c0.6-1.8,1-2.7,2-2.7   c1,0,0.8,0.9,0.2,2.7C210,70.6,209.6,71.1,208.7,71.1 M201.2,72.5l0.7-2h-3.8l3.4-10.1h-2.5l-4.1,12.1H201.2z M183.5,72.5l4.1-12.1   h-2.4l-1.5,4.4h0c-0.2-0.7-0.7-1-1.6-1c-2.4,0-3.2,2.6-3.8,4.3c-0.6,1.7-1.6,4.5,0.9,4.5c0.9,0,1.7-0.3,2.4-1.1h0l-0.3,0.9H183.5z    M180.6,71.2c-0.9,0-0.7-0.9,0-3c0.6-1.7,0.9-2.9,2-2.9c1,0,0.6,1.2,0,2.9C181.9,70.3,181.4,71.2,180.6,71.2 M173.8,68.6   c1-2.7,1.3-4.8-1.9-4.8c-3.1,0-4.1,2-4.9,4.3c-0.9,2.7-1.1,4.5,1.9,4.5c1.1,0,2-0.3,2.8-0.8c0.7-0.5,1.3-1.3,1.6-2.2h-2.4   c-0.2,0.7-0.7,1.5-1.5,1.5c-1,0-0.6-1.5-0.2-2.5H173.8z M169.8,67.3c0.2-0.7,0.7-2,1.7-2c1.1,0,0.7,1.2,0.4,2H169.8z M163.2,67   c0.7-2.2-0.2-3.2-2.4-3.2c-3.1,0-4.1,2-4.9,4.3c-0.9,2.7-1.1,4.5,1.9,4.5c2.2,0,3.8-1,4.6-3.3H160c-0.4,1.1-0.9,1.8-1.7,1.8   c-0.9,0-0.9-0.6,0-3.1c0.6-1.8,1-2.7,2-2.7c0.7,0,0.9,0.4,0.5,1.7H163.2z M148.7,64h-2.4l-2.8,8.5h2.4l2-5.8   c0.3-0.8,0.6-1.3,1.3-1.3c0.8,0,0.7,0.6,0.4,1.3l-2,5.8h2.4l2.3-6.8c0.4-1.2-0.4-1.8-1.5-1.8c-0.9,0-1.6,0.3-2.3,1h0L148.7,64z    M140.6,66.7c0.5-1.5,0.6-2.8-2.4-2.8c-0.9,0-1.7,0.2-2.4,0.6c-0.7,0.4-1.2,1-1.6,2.1h2.3c0.2-0.7,0.5-1.3,1.3-1.3   c0.9,0,0.8,0.5,0.5,1.2l-0.2,0.7c-2.2,0-4.4,0.1-5.3,2.9c-0.5,1.5-0.3,2.7,1.3,2.7c1,0,1.9-0.4,2.6-1.3h0l-0.3,1.1h2.2   c0.1-0.5,0.2-1.1,0.4-1.6L140.6,66.7z M137.7,68.4c-0.3,0.9-0.7,2.8-2.1,2.8c-0.8,0-0.6-0.7-0.4-1.3   C135.7,68.3,136.6,68.4,137.7,68.4 M123.5,72.5h2.6l5.2-8.5h-2.3l-3.4,6.4h0l0.9-6.4H124L123.5,72.5z M117.3,72.5l4.1-12.1H119   l-1.5,4.4h0c-0.2-0.7-0.7-1-1.6-1c-2.4,0-3.2,2.6-3.8,4.3c-0.6,1.7-1.6,4.5,0.9,4.5c0.9,0,1.7-0.3,2.4-1.1h0l-0.3,0.9H117.3z    M114.4,71.2c-0.9,0-0.7-0.9,0-3c0.6-1.7,0.9-2.9,2-2.9c1,0,0.6,1.2,0,2.9C115.7,70.3,115.2,71.2,114.4,71.2 M104.6,67.9h-2.4   l2.9-5.2h0L104.6,67.9z M99.5,72.5l1.6-2.7h3.5l-0.2,2.7h2.7l0.8-12.1h-3.3L97,72.5H99.5z"/>
</g>
</svg>