<svg xmlns="http://www.w3.org/2000/svg" version="1.1" viewBox="1.71 1.93 609.54 604.33">
<path d="M0 0 C3.05581751 0.58549132 4.84238986 1.42641136 7.171875 3.4765625 C7.7498584 3.97897461 8.3278418 4.48138672 8.92333984 4.99902344 C9.5261377 5.5355957 10.12893555 6.07216797 10.75 6.625 C11.37471191 7.17188477 11.99942383 7.71876953 12.64306641 8.28222656 C13.88006855 9.36600876 15.11467988 10.4525269 16.34667969 11.54199219 C18.33861444 13.29861273 20.35799226 15.02228421 22.375 16.75 C25.09511822 19.15355274 27.75729372 21.61013218 30.375 24.125 C31.34566406 25.05699219 31.34566406 25.05699219 32.3359375 26.0078125 C37.01890463 31.61418159 36.59143732 38.08231216 36 45 C35.16066341 50.43192379 33.90639023 55.77971125 32.64916992 61.12744141 C32.08208546 63.54162118 31.53427752 65.95944413 30.99023438 68.37890625 C24.76272862 95.70802719 17.06495129 122.68124326 9.14486694 149.55914307 C8.0207406 153.37822547 6.90211327 157.19891797 5.78320312 161.01953125 C5.31336194 162.62365941 4.84351323 164.22778536 4.37365723 165.83190918 C4.13762283 166.63776962 3.90158844 167.44363007 3.65840149 168.27391052 C2.93363808 170.74755589 2.20828982 173.22102909 1.48278809 175.69445801 C-3.6802063 193.29959731 -8.79726789 210.91803783 -13.91342163 228.53683472 C-16.56171188 237.65655012 -19.21247198 246.77554779 -21.86328125 255.89453125 C-22.12319666 256.78868303 -22.38311207 257.68283482 -22.6509037 258.60408211 C-35.81393705 303.88564055 -49.01583836 349.15588948 -62.31323242 394.39819336 C-63.23236029 397.52584918 -64.15137307 400.65353881 -65.0703125 403.78125 C-65.3014934 404.56802691 -65.53267429 405.35480381 -65.77086067 406.16542244 C-69.30793047 418.20584624 -72.82362262 430.25240171 -76.32992554 442.30181885 C-78.47674141 449.67875178 -80.62870306 457.05418101 -82.78178596 464.42928696 C-84.28082946 469.56535171 -85.77711862 474.70218467 -87.26690674 479.84094238 C-88.66793679 484.67350555 -90.07603182 489.50395673 -91.48917007 494.33299255 C-92.0070462 496.10737781 -92.5223794 497.88250774 -93.03484726 499.65846252 C-97.17396936 513.9945311 -101.98574084 527.80539322 -108.9375 541.0625 C-109.32873047 541.85076172 -109.71996094 542.63902344 -110.12304688 543.45117188 C-113.37240376 549.68388693 -117.29620753 554.74071056 -124.125 557.0625 C-127.87002276 556.98108646 -129.15667514 556.47879603 -132 554 C-144.8024316 537.21632443 -144.0560772 509.87101896 -142 490 C-141.49130619 486.35660343 -140.87076255 482.73896333 -140.22045898 479.1184082 C-140.04386214 478.12156919 -139.8672653 477.12473017 -139.68531704 476.09768391 C-137.89131234 466.13079682 -135.78475286 456.24222513 -133.59765625 446.35546875 C-133.16636862 444.38853124 -132.73547417 442.42150748 -132.30493164 440.45440674 C-131.14017209 435.13961044 -129.96885664 429.82627935 -128.79603958 424.51325607 C-127.80563704 420.02292271 -126.81904235 415.53175568 -125.83225155 411.04062748 C-112.7089421 351.32639787 -99.35021613 291.66382414 -86 232 C-88.08850732 232.14786361 -90.17675788 232.29935685 -92.26489258 232.45239258 C-93.42781326 232.53636795 -94.59073395 232.62034332 -95.78889465 232.7068634 C-108.30422743 233.84936783 -120.28983813 239.98239217 -129 249 C-134.29522293 255.67742901 -137.97642773 262.72433052 -141.375 270.5 C-145.7324303 280.2164234 -150.34123899 289.75481438 -155.16778564 299.24557495 C-161.47791895 311.66174357 -167.41741494 324.1775531 -173 336.9375 C-178.15046954 348.6870337 -183.40737067 360.373423 -188.95678711 371.94094849 C-189.68334215 373.45820765 -190.40548864 374.97758727 -191.12280273 376.49923706 C-194.88134958 384.457682 -198.51999107 391.8542242 -205 398 C-205.74507812 398.71414063 -206.49015625 399.42828125 -207.2578125 400.1640625 C-208.18207031 400.88722656 -208.18207031 400.88722656 -209.125 401.625 C-209.74632812 402.13289063 -210.36765625 402.64078125 -211.0078125 403.1640625 C-213 404 -213 404 -215.45703125 403.375 C-218.13371689 401.9276984 -220.27065409 400.37588112 -222.5625 398.375 C-223.30628906 397.74335938 -224.05007812 397.11171875 -224.81640625 396.4609375 C-230.41934304 390.14635757 -231.70463825 383.50765133 -232.37890625 375.28515625 C-232.47625061 374.25302505 -232.57359497 373.22089386 -232.67388916 372.15748596 C-232.98646761 368.79375196 -233.27524992 365.42848399 -233.5625 362.0625 C-233.77277948 359.72241225 -233.9839703 357.38240622 -234.19604492 355.04248047 C-234.82424568 348.03051178 -235.41598189 341.01576711 -236 334 C-236.08677002 332.97046204 -236.17354004 331.94092407 -236.26293945 330.88018799 C-239.62454593 290.96233851 -239.62454593 290.96233851 -239 271 C-239.886875 270.72414063 -240.77375 270.44828125 -241.6875 270.1640625 C-250.89289521 266.92914767 -257.6059331 261.78813381 -262 253 C-263.03834547 245.28657654 -261.39811634 239.37673103 -257 233 C-252.2197236 227.42485085 -246.61669942 224.64835246 -239.83203125 222.04296875 C-231.82447275 216.26648172 -230.5881964 205.09016451 -228.8125 196 C-228.52389041 194.58348156 -228.23396627 193.16723045 -227.94287109 191.7512207 C-226.33392929 183.87603435 -224.80041383 175.9858168 -223.25546265 168.09788513 C-201.52052778 57.19043727 -201.52052778 57.19043727 -170.1875 10 C-169.73125244 9.29818604 -169.27500488 8.59637207 -168.80493164 7.87329102 C-167.48046875 5.9375 -167.48046875 5.9375 -165 3 C-163.68 3 -162.36 3 -161 3 C-159.33758777 5.32133199 -157.98152325 7.508882 -156.625 10 C-155.83245955 11.38455275 -155.0369023 12.76738316 -154.23828125 14.1484375 C-153.85494629 14.81584961 -153.47161133 15.48326172 -153.07666016 16.17089844 C-149.0003235 23.09604906 -144.50589132 29.75004357 -136.5078125 31.96875 C-133.01441708 32.72787818 -129.52491979 33.40607516 -126 34 C-127.7821427 43.62883559 -130.2213571 53.07572117 -132.62890625 62.5625 C-133.09595215 64.41015072 -133.56281068 66.2578488 -134.02949524 68.10559082 C-135.27892129 73.04929279 -136.53167386 77.99214587 -137.78530121 82.93478394 C-138.56275879 86.00102063 -139.33930322 89.06748713 -140.11553955 92.1340332 C-146.98458198 119.26905466 -153.89398438 146.39356324 -160.875 173.5 C-161.05669361 174.20588257 -161.23838722 174.91176514 -161.4255867 175.63903809 C-162.61234148 180.24948935 -163.80147162 184.8593201 -164.9921875 189.46875 C-165.28587723 190.60807983 -165.57956696 191.74740967 -165.88215637 192.92126465 C-166.1490477 193.95207153 -166.41593903 194.98287842 -166.69091797 196.04492188 C-166.92132782 196.93626831 -167.15173767 197.82761475 -167.38912964 198.74597168 C-167.86828834 200.51400195 -168.42073114 202.26219343 -169 204 C-155.43593831 202.165504 -155.43593831 202.165504 -142.0625 199.3125 C-137.68044514 198.21698628 -133.82810117 197.88973532 -129.3125 198 C-119.68197881 198.20860335 -111.24442945 195.53796913 -104 189 C-98.72942358 182.88819151 -94.84819723 175.86238254 -90.875 168.875 C-90.21975342 167.72990967 -89.56450684 166.58481934 -88.8894043 165.4050293 C-78.97817697 148.04762964 -69.60008695 130.42467111 -60.39648438 112.68408203 C-58.32229224 108.69742673 -56.22381109 104.7237318 -54.125 100.75 C-49.47882886 91.94250023 -44.89687781 83.10207525 -40.31738281 74.25976562 C-36.02817738 65.97892566 -31.72766058 57.70413157 -27.40551758 49.44042969 C-24.88959584 44.62925902 -22.38565368 39.81247114 -19.90234375 34.984375 C-13.73754125 23.02698449 -7.46998197 11.20497296 0 0 Z M-66.91796875 148.6875 C-71.03635684 152.88386101 -75.07104683 157.09424114 -78.84375 161.60546875 C-80.63520333 163.59489065 -82.46109486 165.40522515 -84.40625 167.23828125 C-93.57440325 176.08987937 -97.60254935 183.28034713 -99 196 C-99 196.99 -99 197.98 -99 199 C-95.91256696 198.61070717 -92.83146604 198.18382033 -89.75 197.75 C-88.87730469 197.64042969 -88.00460937 197.53085938 -87.10546875 197.41796875 C-86.26113281 197.29550781 -85.41679687 197.17304688 -84.546875 197.046875 C-83.77182617 196.94213867 -82.99677734 196.83740234 -82.19824219 196.72949219 C-79.2593223 195.75420424 -77.95479315 194.38255827 -76 192 C-74.8310367 189.67473338 -74.8310367 189.67473338 -74.03515625 187.09765625 C-73.71224609 186.13408203 -73.38933594 185.17050781 -73.05664062 184.17773438 C-72.72857422 183.14970703 -72.40050781 182.12167969 -72.0625 181.0625 C-71.71767578 180.00740234 -71.37285156 178.95230469 -71.01757812 177.86523438 C-67.76912963 167.70700197 -65.25714171 157.41757711 -63 147 C-65.17551771 146.77981368 -65.17551771 146.77981368 -66.91796875 148.6875 Z M-180.05859375 258.859375 C-184.16664674 263.89473909 -185.13891329 269.70728525 -186.5 275.9375 C-186.8136398 277.30638857 -187.12872755 278.67494598 -187.44506836 280.04321289 C-188.41536841 284.27839118 -189.35125024 288.5207625 -190.28485107 292.76416016 C-191.09683854 296.43816608 -191.9190231 300.10984672 -192.74267578 303.78125 C-194.53174297 311.75972681 -196.30605931 319.74141389 -198.07247925 327.72493362 C-198.56346658 329.94186436 -199.05606183 332.15843356 -199.54882812 334.37496948 C-200.33264556 337.90467086 -201.10883754 341.43597129 -201.87936211 344.96859741 C-202.30943895 346.93301986 -202.74622549 348.89596946 -203.18312073 350.85888672 C-203.43794724 352.03459229 -203.69277374 353.21029785 -203.95532227 354.42163086 C-204.18212173 355.454608 -204.4089212 356.48758514 -204.64259338 357.55186462 C-205.23824462 359.99995373 -205.23824462 359.99995373 -204 362 C-202.105998 361.98841646 -202.105998 361.98841646 -200 361 C-198.56299068 358.86654831 -197.41401501 356.87427783 -196.26953125 354.58984375 C-195.92209869 353.92399765 -195.57466614 353.25815155 -195.21670532 352.5721283 C-194.06941949 350.36684284 -192.94128686 348.15230299 -191.8125 345.9375 C-191.01000549 344.38807729 -190.20602933 342.83942114 -189.40063477 341.29150391 C-187.73913391 338.09574398 -186.08377981 334.89691355 -184.43261719 331.69580078 C-181.16802601 325.37879584 -177.82633592 319.10334653 -174.47955322 312.82962036 C-173.08327889 310.21057347 -171.6913299 307.58923836 -170.29928589 304.96794128 C-167.40032745 299.50934495 -164.49627527 294.05348807 -161.58702087 288.60037231 C-160.06754621 285.75174305 -158.54959487 282.90230336 -157.0317688 280.05279541 C-156.3203476 278.7182036 -155.60820832 277.38399422 -154.89523315 276.05023193 C-149.76248238 266.44799878 -144.82880213 256.75858833 -140 247 C-153.58513422 246.26802081 -170.04629084 248.76158984 -180.05859375 258.859375 Z " fill="#FFFFFF" transform="translate(412,39)"/>
<path d="M0 0 C8.38577629 -0.37438686 16.36481868 0.75682439 24.625 2.125 C25.30429565 2.23670532 25.98359131 2.34841064 26.68347168 2.46350098 C56.21384168 7.35560633 85.11239216 15.71654926 112 29 C112.92264648 29.45246094 113.84529297 29.90492187 114.79589844 30.37109375 C133.1863078 39.4646429 150.03085183 50.13825051 166 63 C166.9384375 63.73347656 167.876875 64.46695313 168.84375 65.22265625 C176.78727149 71.65063746 184.01264597 78.80052634 191.25 86 C191.76374176 86.50847473 192.27748352 87.01694946 192.80679321 87.54083252 C199.67301485 94.35262671 206.02783029 101.37388354 212 109 C212.53206055 109.67272949 213.06412109 110.34545898 213.61230469 111.03857422 C226.33079904 127.28517371 237.51911955 144.6774397 247 163 C247.4729248 163.91313965 247.94584961 164.8262793 248.43310547 165.76708984 C267.76982678 203.55329599 280.9936213 246.62239315 281.203125 289.37890625 C281.21013931 290.34065765 281.21715363 291.30240906 281.22438049 292.29330444 C281.24179932 295.38308441 281.24823355 298.47267272 281.25 301.5625 C281.25067474 302.61801056 281.25134949 303.67352112 281.25204468 304.76101685 C281.23615859 320.3868362 280.81640749 335.5901484 278 351 C277.83371094 351.95632324 277.66742187 352.91264648 277.49609375 353.89794922 C273.19769001 378.1321903 265.99225972 401.52284384 256 424 C255.64856934 424.80308594 255.29713867 425.60617187 254.93505859 426.43359375 C235.94971015 469.51539049 204.2553419 511.87679276 167 541 C165.90899833 541.88007691 164.8192085 542.76165767 163.73046875 543.64453125 C117.15459567 581.19227783 56.76283593 603.93315992 -3.28125 604.203125 C-4.32594452 604.20995804 -5.37063904 604.21679108 -6.44699097 604.22383118 C-9.79802727 604.24079329 -13.14892334 604.24715131 -16.5 604.25 C-17.63818176 604.25200409 -18.77636353 604.25400818 -19.94903564 604.256073 C-38.5132801 604.26409699 -56.7511245 603.73556213 -75 600 C-75 599.67 -75 599.34 -75 599 C-74.25895523 599.00888245 -73.51791046 599.01776489 -72.75440979 599.0269165 C-24.66623716 600.2046295 -24.66623716 600.2046295 23 595 C24.15773926 594.78569336 25.31547852 594.57138672 26.50830078 594.35058594 C74.05866709 585.30528574 117.95692912 565.9154926 156 536 C156.99515625 535.21882812 157.9903125 534.43765625 159.015625 533.6328125 C176.41592908 519.66285409 193.42963457 503.74384338 207 486 C207.8474616 484.95085803 208.69790733 483.90412192 209.55078125 482.859375 C244.81273162 439.39213087 264.89903424 387.60052673 270 332 C270.0942627 331.04730225 270.18852539 330.09460449 270.28564453 329.11303711 C271.20435395 318.85849786 271.24341975 308.60043559 271.25 298.3125 C271.25067474 297.36113159 271.25134949 296.40976318 271.25204468 295.42956543 C271.23482666 280.10070047 270.64941562 265.1350475 268 250 C267.83371094 249.04931641 267.66742187 248.09863281 267.49609375 247.11914062 C258.8497784 199.8205933 238.1200596 154.50728187 207.2890625 117.54931641 C205.99835055 115.99801754 204.73340458 114.42804344 203.46875 112.85546875 C189.96711111 96.34383147 174.31466776 80.47828535 157 68 C155.82684828 67.10231849 154.65635753 66.20115086 153.48828125 65.296875 C115.65178899 36.29025084 69.04461431 23.1395505 24.29264832 8.96101379 C16.16871401 6.3835078 8.07032444 3.74089685 0 1 C0 0.67 0 0.34 0 0 Z " fill="#FFFFFF" transform="translate(330,2)"/>
<path d="M0 0 C13.66543725 5.11513615 26.05030331 14.40998761 38.25439453 22.24365234 C41.5926738 24.37912994 44.94483521 26.49185166 48.30004883 28.60058594 C52.20646676 31.05691593 56.10317929 33.52848466 60 36 C60.89686523 36.56702637 61.79373047 37.13405273 62.71777344 37.71826172 C65.48367111 39.47089545 68.24255222 41.23410874 71 43 C71.8554541 43.54019775 72.7109082 44.08039551 73.59228516 44.63696289 C74.38683105 45.14864014 75.18137695 45.66031738 76 46.1875 C76.70125 46.63480469 77.4025 47.08210937 78.125 47.54296875 C81.43982857 50.11886678 82.81090111 52.10607797 83.6875 56.25 C83.790625 57.1575 83.89375 58.065 84 59 C85.05417114 59.06368774 85.05417114 59.06368774 86.12963867 59.12866211 C96.58195534 59.84051581 106.92910558 61.19773847 117.3125 62.5625 C119.13212135 62.79913674 120.95178258 63.03546704 122.77148438 63.27148438 C127.1814566 63.84412979 131.59087079 64.42090097 136 65 C136 67.31 136 69.62 136 72 C128.24384763 75.10246095 121.87237239 74.39698795 114.203125 71.5859375 C113.48823914 71.333815 112.77335327 71.0816925 112.0368042 70.82192993 C110.53215631 70.28817537 109.02966259 69.74831236 107.52929688 69.20263672 C105.27471213 68.38397324 103.01335513 67.58701603 100.75 66.79296875 C88.5825907 62.47304055 77.4106436 57.12388457 66.5 50.1875 C64.67524647 49.04304651 62.84968109 47.89988674 61.0234375 46.7578125 C60.05631836 46.15227539 59.08919922 45.54673828 58.09277344 44.92285156 C53.0568044 41.7918686 47.98607406 38.71850779 42.91415405 35.64627075 C41.12695931 34.56368684 39.34037956 33.48009464 37.55395508 32.39624023 C31.82168961 28.91905893 26.08607725 25.44748493 20.34765625 21.98046875 C18.29424918 20.73701492 16.24086269 19.49352712 14.1875 18.25 C13.25760254 17.68998291 12.32770508 17.12996582 11.36962891 16.55297852 C6.4220687 13.55377759 1.65860222 10.43198526 -3 7 C-2.25 2.25 -2.25 2.25 0 0 Z " fill="#FFFFFF" transform="translate(103,526)"/>
<path d="M0 0 C3.93406147 1.31135382 4.84500863 3.1157175 7.3125 6.4375 C8.20885566 7.63079445 9.10603738 8.82346871 10.00390625 10.015625 C10.48617676 10.65951172 10.96844727 11.30339844 11.46533203 11.96679688 C14.18636869 15.57175922 16.97143756 19.12681511 19.75 22.6875 C20.94937073 24.22774625 22.14858757 25.76811234 23.34765625 27.30859375 C23.94980957 28.08187012 24.55196289 28.85514648 25.17236328 29.65185547 C26.98986598 31.98697983 28.80575788 34.3233471 30.62109375 36.66015625 C36.41800341 44.12122782 42.22776757 51.5713325 48.07421875 58.99365234 C52.76548291 64.95780817 57.38658282 70.97553766 62 77 C61.67 77.66 61.34 78.32 61 79 C53.72304531 75.90055634 48.67213666 71.44987425 43 66 C42.28070313 65.34386719 41.56140625 64.68773437 40.8203125 64.01171875 C24.01720413 48.16263302 5.26329791 22.86391625 0 0 Z " fill="#FFFFFF" transform="translate(35,441)"/>
<path d="M0 0 C1.98 0 3.96 0 6 0 C6 32.67 6 65.34 6 99 C4.35 99 2.7 99 1 99 C-0.92146774 97.07853226 -0.12016542 94.21281685 -0.12442017 91.65637207 C-0.12082489 90.74359497 -0.11722961 89.83081787 -0.11352539 88.89038086 C-0.11367142 87.93438492 -0.11381744 86.97838898 -0.1139679 85.99342346 C-0.11326835 82.81720755 -0.10547403 79.64104948 -0.09765625 76.46484375 C-0.09579222 74.26908907 -0.09436825 72.07333398 -0.09336853 69.87757874 C-0.08954219 64.08579367 -0.07971091 58.2940335 -0.06866455 52.5022583 C-0.05845293 46.59721209 -0.05387145 40.69216187 -0.04882812 34.78710938 C-0.03808875 23.19139528 -0.02101093 11.59569971 0 0 Z " fill="#FFFFFF" transform="translate(2,265)"/>
<path d="M0 0 C4.6994025 1.45457696 6.57299882 3.41135506 9 7.6875 C14.16225206 17.95809026 17.78574688 28.78414536 20.9375 39.8125 C21.16123291 40.58343994 21.38496582 41.35437988 21.61547852 42.14868164 C23.1216097 47.63517091 23.1216097 47.63517091 22 51 C10.47918318 39.71777998 7.05290771 24.40009356 2.77441406 9.35913086 C2.06552039 6.98958381 2.06552039 6.98958381 0.90527344 4.87719727 C0 3 0 3 0 0 Z " fill="#FFFFFF" transform="translate(9,379)"/>
</svg>