<svg id="Ebene_1" data-name="Ebene 1" xmlns="http://www.w3.org/2000/svg" viewBox="0 0 556.03 271.89"><defs><style>.cls-1{fill:#f49b00;}</style></defs><path class="cls-1" d="M194.44,69.27V202.89c0,34.73,28.19,63.34,62.93,63.34H270v-58h-7.82a10.53,10.53,0,0,1-10.53-10.52V74.89a10.53,10.53,0,0,1,10.53-10.52H270v-58H257.37A63,63,0,0,0,194.44,69.27ZM300.08,6.34H287.41v58h7.82a10.52,10.52,0,0,1,10.52,10.52V197.68a10.52,10.52,0,0,1-10.52,10.52h-7.82v58h12.67c34.73,0,62.92-28.61,62.92-63.34V69.27A63,63,0,0,0,300.08,6.34ZM62.86,197.68v-7.77H5.62v13c0,34.73,28.19,63.34,62.92,63.34H81.21v-58H73.39A10.53,10.53,0,0,1,62.86,197.68ZM111.25,6.34H98.58v58h7.82a10.52,10.52,0,0,1,10.52,10.52V197.68A10.52,10.52,0,0,1,106.4,208.2H98.58v58h12.67c34.73,0,62.92-28.61,62.92-63.34V69.27A63,63,0,0,0,111.25,6.34Zm381.91-.68v90a10.53,10.53,0,0,1-10.52,10.53h-7.82v58h12.67c34.73,0,62.92-28.61,62.92-63.33V5.66Zm-54.05,90V6.34H381.86V202.89c0,34.73,28.19,63.34,62.92,63.34h12.67v-58h-7.82a10.52,10.52,0,0,1-10.52-10.52V163.9c1.87.17,3.76.29,5.67.29h12.67v-58h-7.82A10.53,10.53,0,0,1,439.11,95.64Z"/></svg>