<svg xmlns="http://www.w3.org/2000/svg" version="1.1" viewBox="214.81 214.75 749.86 750.17">
<path d="M0 0 C0.82031708 -0.00067474 1.64063416 -0.00134949 2.48580933 -0.00204468 C60.33316717 0.07257188 118.7261905 13.21825449 170.07568359 40.21386719 C172.2027239 41.32312733 174.3442195 42.40059969 176.48828125 43.4765625 C195.15363912 52.94052203 212.65459142 64.27048513 229.0625 77.25 C229.73506836 77.77980469 230.40763672 78.30960937 231.10058594 78.85546875 C239.55852747 85.54554556 247.71046021 92.4678989 255.56640625 99.85546875 C257.1551982 101.33640537 258.76264638 102.79476668 260.375 104.25 C266.19484924 109.51814099 271.73576599 114.85515718 276.90234375 120.78125 C278.36526044 122.45315479 279.85879842 124.0986688 281.37890625 125.71875 C288.27799409 133.07187091 294.37463038 140.91954133 300.38916016 149.00292969 C301.48807104 150.47861918 302.59177348 151.95075494 303.70068359 153.41894531 C362.01936128 230.69777054 385.11015191 330.51633417 372.3125 429.375 C363.45260619 489.38483945 340.57051922 547.61681287 304.0625 596.25 C303.63275879 596.8284668 303.20301758 597.40693359 302.76025391 598.00292969 C285.06202947 621.76814622 264.52478021 645.08804533 241.0625 663.25 C239.20519596 664.82965191 237.35122867 666.41323257 235.5 668 C160.50324326 730.36876814 60.35635947 757.11646296 -35.94287109 748.64355469 C-107.36684256 741.8075754 -175.87811166 714.02226317 -231.9375 669.25 C-232.86691406 668.51394531 -233.79632813 667.77789063 -234.75390625 667.01953125 C-241.19970959 661.83904919 -247.31412583 656.34259273 -253.36083984 650.70898438 C-254.98613147 649.20499819 -256.62580037 647.71817273 -258.26953125 646.234375 C-264.07799117 640.9734373 -269.60849928 635.64356366 -274.76953125 629.73046875 C-277.06594654 627.10303864 -279.43624924 624.5553089 -281.8125 622 C-287.54696467 615.68236943 -292.80051121 609.05629788 -297.9375 602.25 C-298.44684082 601.57582031 -298.95618164 600.90164063 -299.48095703 600.20703125 C-347.92641799 535.63297673 -374.25174571 456.65037555 -374.125 375.9375 C-374.12309662 374.68286957 -374.12309662 374.68286957 -374.12115479 373.40289307 C-373.96911961 320.56878532 -363.0469154 268.33298176 -340.9375 220.25 C-340.56189941 219.41275391 -340.18629883 218.57550781 -339.79931641 217.71289062 C-318.66331063 170.63277289 -285.59557621 125.60383489 -245.9375 92.25 C-245.04417969 91.46753906 -244.15085937 90.68507813 -243.23046875 89.87890625 C-176.40738579 31.66665549 -88.31303128 0.06635934 0 0 Z M-177.9375 80.25 C-176.6872782 83.60994819 -175.27524522 86.47897258 -173.26171875 89.44140625 C-172.69582031 90.28123047 -172.12992188 91.12105469 -171.546875 91.98632812 C-170.91265625 92.91896484 -170.2784375 93.85160156 -169.625 94.8125 C-168.17957247 96.95869932 -166.73543309 99.10571828 -165.29296875 101.25390625 C-164.88984467 101.8535318 -164.48672058 102.45315735 -164.07138062 103.07095337 C-158.44366445 111.4549284 -152.90634944 119.8988421 -147.35610962 128.334198 C-135.19443818 146.82366249 -135.19443818 146.82366249 -122.9375 165.25 C-115.42114262 176.48260381 -107.99486776 187.7742281 -100.5625 199.0625 C-92.71698231 210.97818916 -84.86880587 222.89119081 -76.9375 234.75 C-68.35749632 247.57873567 -59.8742836 260.47082501 -51.38751221 273.36135864 C-43.80028417 284.88487523 -36.1954904 296.39511802 -28.52294922 307.86206055 C-20.23657493 320.2643567 -12.09489496 332.76266407 -3.9375 345.25 C0.61166629 341.10657157 3.71379896 336.47016535 6.98828125 331.28515625 C8.14468581 329.48020897 9.30177284 327.6756988 10.45947266 325.87158203 C11.35088959 324.4773703 11.35088959 324.4773703 12.26031494 323.05499268 C15.15239532 318.55364348 18.09690231 314.08722447 21.04296875 309.62109375 C21.62668243 308.73503448 22.21039612 307.84897522 22.8117981 306.93606567 C24.62374541 304.18602434 26.43678929 301.43670846 28.25 298.6875 C28.88478271 297.72457031 29.51956543 296.76164062 30.17358398 295.76953125 C38.11198429 283.72821572 46.0742468 271.70392605 54.09204102 259.71533203 C61.99153424 247.88839172 69.80137561 236.00233918 77.62255859 224.12353516 C84.98755565 212.93840233 92.36565427 201.76349588 99.81347656 190.63330078 C107.387562 179.2961539 114.86791117 167.89696982 122.36547852 156.50915527 C130.41241911 144.28815236 138.48574208 132.08629607 146.62011719 119.92333984 C155.85837358 106.09223763 164.95427547 92.1669229 174.0625 78.25 C171.76960559 75.71815651 169.45979759 74.22920327 166.44140625 72.6484375 C165.51755127 72.16310547 164.59369629 71.67777344 163.6418457 71.17773438 C158.46055849 68.51098786 153.27189554 65.86148526 148.0625 63.25 C147.25103516 62.83911133 146.43957031 62.42822266 145.60351562 62.00488281 C53.79144433 16.09884717 -58.56684243 21.53260206 -177.9375 80.25 Z M190.0625 105.25 C188.3575032 107.70166512 186.70800078 110.17059053 185.078125 112.671875 C184.29963448 113.85742477 184.29963448 113.85742477 183.50541687 115.06692505 C181.77129992 117.70923546 180.04200086 120.35466634 178.3125 123 C177.09877793 124.85067852 175.88466042 126.70109775 174.67016602 128.55126953 C172.10898197 132.45353097 169.54934261 136.35679909 166.99072266 140.26074219 C160.67604849 149.89240673 154.33806842 159.50872111 148 169.125 C147.07471497 170.52933289 147.07471497 170.52933289 146.1307373 171.96203613 C138.46549875 183.59509179 130.77423995 195.20948431 123.02954102 206.78979492 C115.13117217 218.61501582 107.32249462 230.4993767 99.50244141 242.37646484 C92.13744435 253.56159767 84.75934573 264.73650412 77.31152344 275.86669922 C70.38663103 286.23211204 63.54271724 296.65094301 56.6875 307.0625 C46.45199113 322.60731347 36.18372253 338.12864979 25.83544922 353.59863281 C23.19850754 357.54206254 20.56792241 361.48972007 17.9375 365.4375 C17.16409767 366.59767969 16.3906653 367.75783937 15.6171875 368.91796875 C15.10414063 369.68753906 14.59109375 370.45710938 14.0625 371.25 C14.45179688 371.8584375 14.84109375 372.466875 15.2421875 373.09375 C18.27730373 377.84923164 21.28858882 382.61422255 24.24546814 387.41880798 C31.02050136 398.38365626 38.25831005 409.02765039 45.5 419.6875 C52.72566047 430.33343697 59.94406164 440.97643481 66.90350342 451.79891968 C72.94130227 461.18763765 79.10335972 470.49484093 85.25 479.8125 C85.89300049 480.78775635 86.53600098 481.7630127 87.19848633 482.76782227 C94.70568498 494.15391101 102.22734388 505.5294345 109.81176758 516.86425781 C117.38864248 528.20510286 124.87120803 539.6083658 132.371521 550.99990845 C140.27751264 563.00630129 148.20233274 574.99858556 156.20043945 586.94384766 C160.87664538 593.93926334 165.50675446 600.96365847 170.12109375 608 C170.7389978 608.94148392 171.35690186 609.88296783 171.99353027 610.85298157 C175.09703633 615.58180602 178.19711981 620.31280873 181.29150391 625.04760742 C182.42464806 626.7753306 183.55794172 628.50295574 184.69140625 630.23046875 C185.21963486 631.04149048 185.74786346 631.85251221 186.292099 632.68811035 C186.77522049 633.42291626 187.25834198 634.15772217 187.75610352 634.91479492 C188.17924332 635.56171799 188.60238312 636.20864105 189.03834534 636.87516785 C189.37631638 637.32886246 189.71428741 637.78255707 190.0625 638.25 C190.3925 638.25 190.7225 638.25 191.0625 638.25 C191.0625 462.36 191.0625 286.47 191.0625 105.25 C190.7325 105.25 190.4025 105.25 190.0625 105.25 Z M220.0625 109.25 C220.0625 284.48 220.0625 459.71 220.0625 640.25 C224.12725943 638.21762029 226.94350462 635.77201725 230.1875 632.6875 C231.34833329 631.59699051 232.50979795 630.50715276 233.671875 629.41796875 C234.24486328 628.87962402 234.81785156 628.3412793 235.40820312 627.78662109 C237.71224526 625.64647333 240.07551162 623.57579654 242.4375 621.5 C245.93973744 618.3569664 249.08325378 615.11054048 252.109375 611.51171875 C254.06303913 609.24937569 256.10389208 607.0864961 258.16455078 604.921875 C265.79931208 596.85384895 272.48229994 588.18734699 279.0625 579.25 C279.56249512 578.5801709 280.06249023 577.9103418 280.57763672 577.22021484 C333.82780504 505.67572559 355.06485754 412.81286161 342.48803711 324.97583008 C337.4915608 291.43572399 327.90250471 258.77311361 313.0625 228.25 C312.73040527 227.55696777 312.39831055 226.86393555 312.05615234 226.14990234 C309.80912273 221.47147718 307.46737852 216.84907802 305.0625 212.25 C304.70639648 211.56292969 304.35029297 210.87585938 303.98339844 210.16796875 C294.30097779 191.63329126 282.37850718 174.35750737 269.0625 158.25 C268.63050293 157.72180664 268.19850586 157.19361328 267.75341797 156.64941406 C253.49100394 139.24747493 238.0884126 122.76943445 220.0625 109.25 Z M-239.18060303 127.21759033 C-240.15537701 128.1937498 -241.12837713 129.17168379 -242.09960938 130.15136719 C-243.56163161 131.62412523 -245.03407488 133.08585045 -246.5078125 134.546875 C-252.75268331 140.78307083 -258.43684724 147.34525553 -263.9375 154.25 C-264.81248733 155.28938069 -265.69261235 156.32450404 -266.58203125 157.3515625 C-323.34789089 223.42497751 -349.00618011 313.91810702 -343.421875 399.99829102 C-337.59549859 476.17209341 -307.11580634 549.39955385 -255.265625 605.703125 C-253.31949408 607.83211386 -251.43176568 609.99156653 -249.5625 612.1875 C-240.77403001 622.28489105 -231.08037374 631.8214175 -219.9375 639.25 C-219.9375 465.01 -219.9375 290.77 -219.9375 111.25 C-225.53995572 111.25 -235.19332863 123.25743 -239.18060303 127.21759033 Z M-190.9375 115.25 C-190.9375 284.54 -190.9375 453.83 -190.9375 628.25 C-187.97644265 625.28894265 -186.03686856 623.12457815 -183.84765625 619.71875 C-183.24300537 618.78530762 -182.63835449 617.85186523 -182.01538086 616.89013672 C-181.01776733 615.33576904 -181.01776733 615.33576904 -180 613.75 C-178.48280641 611.40817429 -176.96456939 609.06704807 -175.4453125 606.7265625 C-175.02706711 606.08123566 -174.60882172 605.43590881 -174.17790222 604.77102661 C-167.96190841 595.1885312 -161.66309009 585.66025881 -155.375 576.125 C-154.4178862 574.67299194 -154.4178862 574.67299194 -153.44143677 573.19165039 C-146.05400491 561.98482702 -138.65128466 550.78920376 -131.18676758 539.63354492 C-124.26160373 529.26817964 -117.41771415 518.84919164 -110.5625 508.4375 C-102.04741673 495.50488172 -93.51540103 482.58521181 -84.90722656 469.71435547 C-77.65961076 458.8629805 -70.48857685 447.96126523 -63.3125 437.0625 C-47.72289249 413.3864983 -47.72289249 413.3864983 -39.875 401.625 C-38.9631897 400.25420288 -38.9631897 400.25420288 -38.03295898 398.85571289 C-35.15186586 394.53146315 -32.2410211 390.23177991 -29.28125 385.9609375 C-28.70511963 385.12127441 -28.12898926 384.28161133 -27.53540039 383.41650391 C-26.46719882 381.86187089 -25.38900965 380.3140288 -24.29858398 378.77490234 C-23.83782471 378.10152832 -23.37706543 377.4281543 -22.90234375 376.734375 C-22.4962085 376.15397461 -22.09007324 375.57357422 -21.67163086 374.97558594 C-20.6752348 372.63354159 -21.03757849 371.6078448 -21.9375 369.25 C-22.74143051 367.76930553 -23.60906808 366.32252505 -24.515625 364.90234375 C-25.08514893 364.00837891 -25.65467285 363.11441406 -26.24145508 362.19335938 C-26.8836499 361.20142578 -27.52584473 360.20949219 -28.1875 359.1875 C-28.86772217 358.12982422 -29.54794434 357.07214844 -30.2487793 355.98242188 C-38.78280507 342.77609883 -47.63925988 329.77958202 -56.46777344 316.76928711 C-62.32087775 308.13849666 -68.12749361 299.4869578 -73.76861572 290.71591187 C-79.76961963 281.38575947 -85.89169692 272.13510138 -92 262.875 C-92.63977783 261.90457764 -93.27955566 260.93415527 -93.9387207 259.93432617 C-101.91367729 247.83839638 -109.9122206 235.75928253 -117.96655273 223.71606445 C-125.21474483 212.86423256 -132.3859683 201.961803 -139.5625 191.0625 C-148.3631701 177.69757433 -157.16995229 164.33790605 -166.0703125 151.0390625 C-168.68947297 147.12506773 -171.29603799 143.20296288 -173.89582825 139.27609253 C-175.76095256 136.45938737 -177.6286777 133.64441117 -179.49655151 130.82952881 C-180.41013236 129.4512998 -181.32252125 128.07227988 -182.2336731 126.69244385 C-183.49511716 124.78246107 -184.76074853 122.87531924 -186.02734375 120.96875 C-186.40877533 120.38886322 -186.79020691 119.80897644 -187.18319702 119.21151733 C-188.07518764 117.87323572 -189.00250069 116.55859514 -189.9375 115.25 C-190.2675 115.25 -190.5975 115.25 -190.9375 115.25 Z M-3.9375 398.25 C-4.36119873 398.89807617 -4.78489746 399.54615234 -5.22143555 400.21386719 C-23.9384698 428.83324595 -42.67153292 457.44612894 -61.6887207 485.8671875 C-68.61372424 496.23230693 -75.45744725 506.6510535 -82.3125 517.0625 C-90.82758327 529.99511828 -99.35959897 542.91478819 -107.96777344 555.78564453 C-115.86414473 567.60835812 -123.67148697 579.48977293 -131.48950195 591.36437988 C-138.44485099 601.92803284 -145.4053646 612.48724677 -152.4375 623 C-158.30913411 631.78967303 -164.15965082 640.59322278 -169.97973633 649.41711426 C-170.94540616 650.87968922 -171.91267174 652.34121194 -172.8815918 653.80163574 C-174.22752261 655.83105252 -175.56758998 657.86421991 -176.90625 659.8984375 C-177.31472168 660.51175934 -177.72319336 661.12508118 -178.14404297 661.75698853 C-180.26969284 664.75132841 -180.26969284 664.75132841 -180.9375 668.25 C-98.97805943 716.19096282 -4.84008521 732.97678528 87.69848633 709.17553711 C118.78308939 700.782099 148.23271475 688.4165458 176.0625 672.25 C176.0625 667.58207435 174.56332191 665.44976214 172.05078125 661.75 C171.61933807 661.09874146 171.1878949 660.44748291 170.74337769 659.77648926 C169.29564747 657.5952777 167.83525126 655.42284494 166.375 653.25 C165.34515845 651.70310705 164.31629009 650.15556581 163.28833008 648.60742188 C161.06743467 645.26438116 158.84209967 641.92435253 156.61425781 638.5859375 C152.95901677 633.10218966 149.33215756 627.60000543 145.7109375 622.09375 C145.0971373 621.16050903 144.4833371 620.22726807 143.85093689 619.26574707 C142.60780834 617.3755151 141.3647206 615.48525629 140.12167358 613.5949707 C131.13625778 599.93700975 122.11899872 586.30125875 113.03051758 572.71166992 C105.13182748 560.88595776 97.32281741 549.00111355 89.50244141 537.12353516 C82.71472328 526.81510892 75.92656382 516.50781316 69.0625 506.25 C61.54614711 495.0173912 54.11999255 483.72569127 46.6875 472.4375 C37.201702 458.03184095 27.69743315 443.6399184 18.10546875 429.3046875 C15.60577758 425.56830701 13.11767412 421.82471582 10.6431427 418.07165527 C9.50866385 416.35122263 8.37239033 414.63198907 7.2355957 412.91308594 C5.82289369 410.77554289 4.41367938 408.6356893 3.00854492 406.49316406 C2.3869751 405.5544043 1.76540527 404.61564453 1.125 403.6484375 C0.57972656 402.82005371 0.03445313 401.99166992 -0.52734375 401.13818359 C-1.80919299 399.12705817 -1.80919299 399.12705817 -3.9375 398.25 Z " fill="#FFFFFF" transform="translate(588.9375,214.75)"/>
</svg>