<svg xmlns="http://www.w3.org/2000/svg" version="1.1" viewBox="7 385.49 1909 324.77">
<path d="M0 0 C1.33077257 0.67176379 2.66265887 1.3414099 4 2 C2.77092493 5.99822231 1.32719939 9.46477739 -0.80078125 13.0625 C-1.36007324 14.01447266 -1.91936523 14.96644531 -2.49560547 15.94726562 C-3.09518066 16.95466797 -3.69475586 17.96207031 -4.3125 19 C-4.92754395 20.04349609 -5.54258789 21.08699219 -6.17626953 22.16210938 C-8.11238573 25.44446611 -10.05612823 28.72223169 -12 32 C-13.27273765 34.15589458 -14.54488661 36.31213683 -15.81640625 38.46875 C-18.87193358 43.64919973 -21.93353636 48.8260171 -25 54 C-28.97855302 53.28361931 -31.88284115 52.13492059 -35.4375 50.1875 C-53.21774563 41.04462956 -73.87180836 39.27580207 -93 45 C-107.60673401 50.69153627 -119.34219726 60.26482519 -125.80957031 74.82226562 C-133.42153158 93.64208258 -132.90706096 112.87920809 -125.5625 131.6796875 C-118.84138342 146.44675615 -107.91616595 157.06428152 -92.875 163.3125 C-74.11454003 169.48581375 -54.98355545 166.83571809 -37.234375 158.73828125 C-35.03017073 157.58143895 -33.01160977 156.46595044 -31 155 C-30.06027344 154.38769531 -29.12054687 153.77539062 -28.15234375 153.14453125 C-25.12009059 148.71446992 -26.07429429 145.80995954 -26.98242188 140.67382812 C-27.21509766 139.52333984 -27.44777344 138.37285156 -27.6875 137.1875 C-27.90083984 136.01767578 -28.11417969 134.84785156 -28.33398438 133.64257812 C-28.86417146 130.75600398 -29.42017338 127.8769418 -30 125 C-31.22630127 125.21205078 -32.45260254 125.42410156 -33.71606445 125.64257812 C-38.26104249 126.42781292 -42.80658002 127.20976588 -47.35229492 127.99072266 C-49.32054849 128.32934343 -51.28864868 128.66885697 -53.2565918 129.00927734 C-56.08342386 129.49811193 -58.9107899 129.98374529 -61.73828125 130.46875 C-62.61962234 130.62186646 -63.50096344 130.77498291 -64.40901184 130.93273926 C-65.22963608 131.07288452 -66.05026031 131.21302979 -66.89575195 131.35742188 C-67.97830009 131.54395325 -67.97830009 131.54395325 -69.0827179 131.73425293 C-71 132 -71 132 -74 132 C-72.72920364 127.83922228 -71.17023309 124.25520026 -68.98046875 120.5 C-68.36880859 119.44554687 -67.75714844 118.39109375 -67.12695312 117.3046875 C-66.16692383 115.66886719 -66.16692383 115.66886719 -65.1875 114 C-64.59001953 112.97132813 -63.99253906 111.94265625 -63.37695312 110.8828125 C-62.4106011 109.22279688 -61.44220457 107.56338935 -60.42880249 105.93167114 C-58.14673427 102.20981583 -56.34956566 98.50459452 -54.69580078 94.46044922 C-51.45880069 87.14688544 -48.25615116 80.12650296 -40.82015991 76.41125488 C-32.31334919 73.56233206 -23.53441195 72.42568298 -14.65795898 71.39019775 C-11.04226202 70.94585441 -7.44478894 70.38473999 -3.84375 69.8359375 C16.06847727 66.86510629 16.06847727 66.86510629 23 67 C23.79352296 71.24965553 24.58446925 75.49978693 25.375 79.75 C25.59671875 80.93722656 25.8184375 82.12445313 26.046875 83.34765625 C26.26601562 84.52714844 26.48515625 85.70664062 26.7109375 86.921875 C26.90993652 87.99018555 27.10893555 89.05849609 27.31396484 90.15917969 C28.25566903 95.4313826 29.11953743 100.71722459 30 106 C30.33 67.72 30.66 29.44 31 -10 C52.12 -10 73.24 -10 95 -10 C95 18.38 95 46.76 95 76 C121.73 76 148.46 76 176 76 C176 47.62 176 19.24 176 -10 C268.07 -10 360.14 -10 455 -10 C455 8.81 455 27.62 455 47 C432.23 47 409.46 47 386 47 C386 104.42 386 161.84 386 221 C364.55 221 343.1 221 321 221 C321 163.58 321 106.16 321 47 C294.6 47 268.2 47 241 47 C241 104.42 241 161.84 241 221 C219.55 221 198.1 221 176 221 C176 192.29 176 163.58 176 134 C149.27 134 122.54 134 95 134 C95 162.71 95 191.42 95 221 C73.88 221 52.76 221 31 221 C30.67 207.8 30.34 194.6 30 181 C27.69 183.31 25.38 185.62 23 188 C20.70974074 189.86691627 18.44920513 191.64661828 16.0625 193.375 C15.41917725 193.84196289 14.77585449 194.30892578 14.11303711 194.79003906 C-18.44741403 217.95358574 -59.40360284 228.95038721 -99.18383789 223.17333984 C-102.50468183 222.59337915 -105.73139631 221.83396473 -109 221 C-109.65291016 220.83371094 -110.30582031 220.66742187 -110.97851562 220.49609375 C-141.25441135 212.53651065 -166.74076254 193.93811333 -182.79956055 166.94311523 C-187.56670388 158.559666 -191.65955255 149.36178979 -194 140 C-194.33 166.73 -194.66 193.46 -195 221 C-216.45 221 -237.9 221 -260 221 C-260 144.77 -260 68.54 -260 -10 C-238.55 -10 -217.1 -10 -195 -10 C-194.67 16.07 -194.34 42.14 -194 69 C-192.02 63.72 -190.04 58.44 -188 53 C-186.6169387 50.11077771 -185.29413439 47.42393444 -183.6875 44.6875 C-183.31069092 44.03144775 -182.93388184 43.37539551 -182.5456543 42.69946289 C-178.95879374 36.62327503 -174.66264912 31.28671305 -170 26 C-169.50113281 25.36964844 -169.00226563 24.73929687 -168.48828125 24.08984375 C-164.07426761 18.53754579 -158.60641945 14.29704923 -153 10 C-152.03191406 9.25492187 -151.06382813 8.50984375 -150.06640625 7.7421875 C-106.50459294 -24.11065433 -46.60939352 -24.81363396 0 0 Z " fill="#ED1E79" transform="translate(1461,403)"/>
<path d="M0 0 C109.60268172 -0.72596428 109.60268172 -0.72596428 155.3671875 -0.87890625 C165.17550863 -0.91190459 174.98382674 -0.94564034 184.79213798 -0.98146789 C186.78485687 -0.98874348 188.777576 -0.99594978 190.77029514 -1.00315583 C211.95814248 -1.08141854 233.14510945 -1.22331153 254.33243497 -1.38875033 C276.08066631 -1.55715102 297.82843718 -1.65707291 319.57729375 -1.69359291 C332.99530288 -1.71827748 346.41082471 -1.79619632 359.828068 -1.9424964 C369.03216053 -2.03773695 378.23496969 -2.06638267 387.43951906 -2.04302479 C392.74915703 -2.03150661 398.05445432 -2.04899188 403.36331749 -2.14569855 C436.86822135 -2.725997 436.86822135 -2.725997 444.43589401 3.82822037 C447.63618535 7.43647018 449.81516823 11.24481218 451.79849124 15.62032914 C453.93252797 19.84693588 457.01003597 23.35556942 460 27 C461.17053265 28.49698511 462.33766764 29.9966389 463.5 31.5 C464.36625 32.61375 464.36625 32.61375 465.25 33.75 C498.5 76.5 498.5 76.5 500.25146484 78.75195312 C501.41315848 80.24551288 502.57494172 81.73900296 503.73681641 83.23242188 C506.73032503 87.08037851 509.72206499 90.92969087 512.7109375 94.78125 C513.32453125 95.57144531 513.938125 96.36164063 514.5703125 97.17578125 C515.72455095 98.66230046 516.87824941 100.14923921 518.03125 101.63671875 C522.30238278 107.13554429 526.64899035 112.56123793 531 118 C531.33 79.06 531.66 40.12 532 0 C553.12 0 574.24 0 596 0 C596 76.23 596 152.46 596 231 C577.19 231 558.38 231 539 231 C527.68271955 217.41926346 527.68271955 217.41926346 523.125 211.1875 C519.14261148 205.8104326 515.07471437 200.52165728 510.875 195.3125 C506.82927706 190.29434751 502.84460546 185.24122126 498.92700195 180.12207031 C491.19577703 170.02152512 483.3667674 159.99525024 475.5 150 C471.36103279 144.74001468 467.2373684 139.46831047 463.125 134.1875 C462.60873047 133.52556641 462.09246094 132.86363281 461.56054688 132.18164062 C455.32061269 124.1610239 449.17360332 116.07317358 443 108 C442.67 148.59 442.34 189.18 442 231 C403.76489377 231.95061441 365.54105265 232.74341783 327.29748439 233.19580917 C322.76837051 233.24958027 318.23928164 233.30523702 313.71020508 233.36206055 C312.80866519 233.3733399 311.9071253 233.38461924 310.97826602 233.39624039 C296.43777389 233.58264246 281.90469887 233.92121868 267.36858705 234.31757023 C252.41771851 234.72178581 237.47069127 234.95894311 222.51458472 235.04580528 C214.12461645 235.09920315 205.75014614 235.22697438 197.36573219 235.54639244 C145.03713644 237.48237377 145.03713644 237.48237377 132.40240097 226.83206558 C122.85149698 217.29648266 116.79431884 205.47189922 111.39943504 193.24483681 C109.21375409 188.32024515 106.65759801 183.77441347 103.76301575 179.2351532 C103.19717318 178.34456891 103.19717318 178.34456891 102.61989945 177.43599302 C99.22073143 172.18986567 95.58696089 167.12422985 92 162 C83.09 161.67 74.18 161.34 65 161 C65 184.1 65 207.2 65 231 C43.55 231 22.1 231 0 231 C0 154.77 0 78.54 0 0 Z M170 13 C173.64594037 15.92070663 173.64594037 15.92070663 177.359375 18.75390625 C193.66273843 31.08798675 201.28926537 47.1433309 204.46484375 66.890625 C204.73752973 69.26635487 204.90526439 71.61101508 205 74 C205.05994141 75.12148438 205.05994141 75.12148438 205.12109375 76.265625 C205.72030026 97.55507994 199.38467923 117.93192848 184.58203125 133.6171875 C177.06082139 140.55809222 168.31343729 145.81631147 159 150 C160.49598218 154.39753003 162.88679877 157.86585129 165.625 161.5625 C166.53924271 162.8192355 167.45198439 164.07706423 168.36328125 165.3359375 C168.81396973 165.95823242 169.2646582 166.58052734 169.72900391 167.22167969 C172.16391952 170.62850361 174.44754433 174.13455912 176.75390625 177.62890625 C180.01659279 182.55226866 183.37831143 187.40902888 186.72973633 192.2722168 C187.23657959 193.00996338 187.74342285 193.74770996 188.265625 194.5078125 C188.8354863 195.26969376 189.4053476 196.03157501 189.99247742 196.81654358 C191.66717032 199.47221078 192.58488809 201.50892029 193.61035156 204.41204834 C195.96946648 210.13900347 198.69439696 214.61198074 204 218 C215.64309976 221.25133471 228.38976667 220.15160667 240.35238934 219.82509089 C245.19657468 219.71200602 250.04098993 219.70195153 254.8862915 219.68063354 C264.04633187 219.6248442 273.20247195 219.47737254 282.36080003 219.29634273 C292.79321639 219.09463765 303.22582639 218.9960571 313.65970945 218.9058249 C335.10912893 218.71803556 356.5532064 218.38816825 378 218 C378 204.14 378 190.28 378 176 C331.14 176 284.28 176 236 176 C236 164.12 236 152.24 236 140 C282.86 140 329.72 140 378 140 C378 123.5 378 107 378 90 C330.81 90 283.62 90 235 90 C235 78.12 235 66.24 235 54 C282.19 54 329.38 54 378 54 C378 40.47 378 26.94 378 13 C309.36 13 240.72 13 170 13 Z M65 56 C65 73.82 65 91.64 65 110 C73.20875 110.061875 81.4175 110.12375 89.875 110.1875 C92.44651855 110.21481201 95.01803711 110.24212402 97.66748047 110.27026367 C99.73404472 110.2790357 101.80061421 110.28667794 103.8671875 110.29296875 C105.44222046 110.3159906 105.44222046 110.3159906 107.04907227 110.33947754 C117.65145957 110.3431942 126.0798617 108.22345947 134 101 C139.97945741 94.70583431 140.52139383 87.92831486 140.37109375 79.546875 C139.71997752 73.32357466 137.59201892 68.60307231 133.16796875 64.16015625 C123.54292808 56.39557709 112.9280905 55.84019494 101.03515625 55.90234375 C99.65982727 55.90385437 99.65982727 55.90385437 98.25671387 55.90539551 C94.85862971 55.91059501 91.46056349 55.92455609 88.0625 55.9375 C80.451875 55.958125 72.84125 55.97875 65 56 Z " fill="#FFFFFF" transform="translate(7,393)"/>
<path d="M0 0 C13.31766838 12.60422186 21.09791171 29.55719533 22.0390625 47.85546875 C22.6832136 71.533946 16.0294578 90.98411793 0.0078125 108.640625 C-19.18536256 128.80999906 -44.29866984 144.34494656 -67.3125 159.6875 C-42.2325 160.0175 -17.1525 160.3475 8.6875 160.6875 C8.25392408 146.04201091 8.25392408 146.04201091 7.6965332 131.40112305 C7.28117931 114.98617221 7.28117931 114.98617221 12.42579651 109.46565247 C14.73323573 107.38528838 17.19193125 105.53470692 19.6875 103.6875 C33.87995378 87.89156688 38.54394378 67.52050625 37.82373047 46.85351562 C36.70425008 29.05417875 28.35439777 12.38674132 15.25 0.4375 C12.1588829 -2.22803587 12.1588829 -2.22803587 8.6875 -4.3125 C8.6875 -8.6025 8.6875 -12.8925 8.6875 -17.3125 C16.45056392 -17.63041495 24.20999787 -17.88649897 31.97780323 -18.03787041 C35.58623603 -18.11057739 39.18994314 -18.20889654 42.7956543 -18.36865234 C68.03093653 -19.45738612 68.03093653 -19.45738612 73.85180664 -14.44140625 C76.37750854 -11.5835816 78.176599 -8.47580126 79.81936646 -5.04620361 C81.02050818 -2.64746697 82.61795808 -0.69411158 84.33203125 1.359375 C85.3883825 2.71846898 86.44437369 4.07784288 87.5 5.4375 C88.69400064 6.97396593 89.88801135 8.51042404 91.08203125 10.046875 C91.67838379 10.81451172 92.27473633 11.58214844 92.88916016 12.37304688 C95.82049363 16.14565634 98.75409198 19.91650355 101.6875 23.6875 C102.85417794 25.18749123 104.0208446 26.68749124 105.1875 28.1875 C106.05375 29.30125 106.05375 29.30125 106.9375 30.4375 C112.1875 37.1875 112.1875 37.1875 113.93823242 39.43847656 C115.10241259 40.93525643 116.2666377 42.43200134 117.4309082 43.92871094 C120.38599173 47.72769058 123.34024014 51.52731465 126.29296875 55.328125 C131.5757322 62.12681188 136.86331261 68.92118279 142.1875 75.6875 C148.71698367 83.99775195 155.19903226 92.34518433 161.6875 100.6875 C162.0175 61.7475 162.3475 22.8075 162.6875 -17.3125 C183.8075 -17.3125 204.9275 -17.3125 226.6875 -17.3125 C226.6875 58.9175 226.6875 135.1475 226.6875 213.6875 C207.8775 213.6875 189.0675 213.6875 169.6875 213.6875 C162.14682171 204.40666519 154.82351162 195.26023145 147.71875 185.6875 C144.65052136 181.59652847 141.43486526 177.63689404 138.1875 173.6875 C133.33483613 167.7845197 128.69216274 161.76148124 124.14111328 155.6237793 C120.22380013 150.35742771 116.16133005 145.22360098 112.04223633 140.11425781 C108.08141916 135.19702455 104.21958947 130.21417 100.3828125 125.19921875 C96.63059379 120.29914541 92.83069086 115.43601716 89.03564453 110.5690918 C83.8899138 103.96406754 78.79294204 97.32457465 73.6875 90.6875 C73.3575 131.2775 73.0275 171.8675 72.6875 213.6875 C-3.8725 213.6875 -80.4325 213.6875 -159.3125 213.6875 C-159.3125 197.5175 -159.3125 181.3475 -159.3125 164.6875 C-146.77197569 154.42707102 -146.77197569 154.42707102 -140.4375 149.75 C-139.05291278 148.71938466 -137.6688043 147.68812587 -136.28515625 146.65625 C-135.61242676 146.15480469 -134.93969727 145.65335938 -134.24658203 145.13671875 C-129.80950375 141.81199056 -125.43249503 138.4086832 -121.04345703 135.02099609 C-117.80591362 132.52685475 -114.55912921 130.04479585 -111.3125 127.5625 C-110.60907471 127.02463867 -109.90564941 126.48677734 -109.1809082 125.93261719 C-104.22220385 122.14290383 -99.25845129 118.35985187 -94.29272461 114.5793457 C-91.59633379 112.5257679 -88.90166269 110.46994805 -86.20703125 108.4140625 C-83.31690928 106.2100048 -80.42104303 104.01457349 -77.51171875 101.8359375 C-56.76944693 86.33166654 -56.76944693 86.33166654 -44.625 64.1875 C-43.58514161 55.86863289 -44.86412731 49.52224667 -50 42.875 C-55.41880887 37.11422747 -61.08746966 36.49491538 -68.6875 36.25 C-75.32701828 36.36939194 -80.45510667 37.61699276 -86.3125 40.6875 C-88.83994088 41.95122044 -90.57630308 41.80772795 -93.40478516 41.80102539 C-94.99620834 41.80091209 -94.99620834 41.80091209 -96.61978149 41.80079651 C-98.34326309 41.79305458 -98.34326309 41.79305458 -100.1015625 41.78515625 C-101.27512299 41.7837413 -102.44868347 41.78232635 -103.6578064 41.78086853 C-107.41772985 41.77525689 -111.17759445 41.76270238 -114.9375 41.75 C-117.48176998 41.7449865 -120.02604088 41.74042333 -122.5703125 41.73632812 C-128.81772853 41.72528368 -135.06511006 41.70853418 -141.3125 41.6875 C-139.49817032 37.87571969 -137.12587761 34.72169622 -134.5 31.4375 C-134.01789062 30.8290625 -133.53578125 30.220625 -133.0390625 29.59375 C-128.79028044 24.24745646 -124.47741117 18.95318742 -120.15991211 13.66235352 C-116.58009957 9.26930962 -113.05274461 4.83945289 -109.5625 0.375 C-108.2394839 -1.31192318 -106.91571343 -2.99824896 -105.59130859 -4.68408203 C-104.73637497 -5.77274321 -103.88253908 -6.86226732 -103.02978516 -7.95263672 C-101.81919389 -9.49530804 -100.59732554 -11.02910955 -99.375 -12.5625 C-98.68535156 -13.43390625 -97.99570312 -14.3053125 -97.28515625 -15.203125 C-76.38417374 -37.55269045 -18.89683888 -16.10689464 0 0 Z " fill="#ED1E79" transform="translate(959.3125,410.3125)"/>
<path d="M0 0 C76.89 0 153.78 0 233 0 C231.172461 4.56884751 229.23412528 7.36598847 226.0625 10.9375 C222.0391941 15.57464362 218.14339704 20.2782021 214.375 25.125 C211.13063452 29.29127415 207.85851869 33.42435989 204.5 37.5 C199.24204987 43.9263835 194.1299448 50.47097934 189 57 C170.52 57 152.04 57 133 57 C133 114.42 133 171.84 133 231 C111.88 231 90.76 231 69 231 C69 173.58 69 116.16 69 57 C46.23 57 23.46 57 0 57 C0 38.19 0 19.38 0 0 Z " fill="#FFFFFF" transform="translate(614,393)"/>
<path d="M0 0 C12 0 12 0 15.11328125 2.4921875 C16.25634766 4.11645508 16.25634766 4.11645508 17.3125 5.875 C17.71001465 6.45983154 18.1075293 7.04466309 18.51708984 7.6472168 C19.32175294 8.83704962 20.1098496 10.03826657 20.88037109 11.25048828 C22.53575356 13.83715874 24.3376478 16.31593791 26.125 18.8125 C27.0865671 20.20610762 28.04628482 21.60100721 29 23 C31.82405334 20.3469527 33.8643434 17.81564343 35.77734375 14.453125 C36.29232422 13.60878906 36.80730469 12.76445313 37.33789062 11.89453125 C38.40198254 10.13533656 39.43372185 8.35615201 40.43164062 6.55859375 C42.02734375 4.015625 42.02734375 4.015625 46 0 C50.29 0 54.58 0 59 0 C59 17.82 59 35.64 59 54 C55.04 54 51.08 54 47 54 C46.67 42.78 46.34 31.56 46 20 C43.710625 23.09375 41.42125 26.1875 39.0625 29.375 C38.34070557 30.34872559 37.61891113 31.32245117 36.87524414 32.32568359 C36.02627563 33.47544678 36.02627563 33.47544678 35.16015625 34.6484375 C34.57886963 35.43395996 33.99758301 36.21948242 33.39868164 37.02880859 C31.96448995 38.94363258 31.96448995 38.94363258 31 41 C27.4353071 39.5454414 25.78048195 37.75066937 23.546875 34.6484375 C22.98838867 33.88192871 22.42990234 33.11541992 21.85449219 32.32568359 C21.16000977 31.35195801 20.46552734 30.37823242 19.75 29.375 C16.40875 24.734375 16.40875 24.734375 13 20 C12.67 31.22 12.34 42.44 12 54 C8.04 54 4.08 54 0 54 C0 36.18 0 18.36 0 0 Z " fill="#FFFFFF" transform="translate(654,655)"/>
<path d="M0 0 C4.29 0 8.58 0 13 0 C16.21608256 3.25086812 17.92319128 5.39644781 20.0625 9.25 C21.11273437 10.9862849 22.16602487 12.72072562 23.22265625 14.453125 C23.88406616 15.61569824 23.88406616 15.61569824 24.55883789 16.80175781 C26.12968249 19.19780809 27.91658243 21.04274046 30 23 C30.37286133 22.48091064 30.74572266 21.96182129 31.12988281 21.42700195 C32.83521732 19.05451222 34.54259005 16.68349648 36.25 14.3125 C37.12978516 13.08756836 37.12978516 13.08756836 38.02734375 11.83789062 C39.17190062 10.24965721 40.32856313 8.67006695 41.49804688 7.10009766 C43.13476212 4.90292083 43.13476212 4.90292083 44.671875 1.91796875 C47 0 47 0 59 0 C59 17.82 59 35.64 59 54 C55.37 54 51.74 54 48 54 C47.505 36.675 47.505 36.675 47 19 C44.73125 22.073125 42.4625 25.14625 40.125 28.3125 C39.41230957 29.27712158 38.69961914 30.24174316 37.96533203 31.2355957 C37.40185059 31.99960693 36.83836914 32.76361816 36.2578125 33.55078125 C35.6817627 34.33106689 35.10571289 35.11135254 34.51220703 35.9152832 C33.30267998 37.58272775 32.14264565 39.28603152 31 41 C27.4353071 39.5454414 25.78048195 37.75066937 23.546875 34.6484375 C22.98838867 33.88192871 22.42990234 33.11541992 21.85449219 32.32568359 C21.16000977 31.35195801 20.46552734 30.37823242 19.75 29.375 C16.40875 24.734375 16.40875 24.734375 13 20 C12.67 31.22 12.34 42.44 12 54 C8.04 54 4.08 54 0 54 C0 36.18 0 18.36 0 0 Z " fill="#FFFFFF" transform="translate(1465,655)"/>
<path d="M0 0 C10 0 10 0 13.28515625 2.45703125 C14.24036192 3.55049912 15.16555313 4.67075739 16.0625 5.8125 C16.56362305 6.4012793 17.06474609 6.99005859 17.58105469 7.59667969 C19.08391415 9.37539863 20.54421872 11.18267193 22 13 C22.81855469 13.98871094 23.63710938 14.97742188 24.48046875 15.99609375 C25.9607972 17.79236149 27.43136423 19.59673183 28.890625 21.41015625 C32.12574808 25.38216847 35.43583943 29.31764022 39 33 C39.33 33 39.66 33 40 33 C40.33 22.11 40.66 11.22 41 0 C44.63 0 48.26 0 52 0 C52 17.82 52 35.64 52 54 C42 54 42 54 38.71484375 51.54296875 C37.75965 50.44949046 36.834468 49.32922601 35.9375 48.1875 C35.43565186 47.59799561 34.93380371 47.00849121 34.41674805 46.40112305 C32.91437307 44.62328476 31.45461215 42.81699987 30 41 C29.19304688 40.02289062 28.38609375 39.04578125 27.5546875 38.0390625 C26.16321722 36.34699585 24.78434603 34.64437976 23.42578125 32.92578125 C19.75539598 28.49885924 15.84694661 24.27438513 12 20 C11.67 31.22 11.34 42.44 11 54 C7.37 54 3.74 54 0 54 C0 36.18 0 18.36 0 0 Z " fill="#FFFFFF" transform="translate(934,655)"/>
<path d="M0 0 C10 0 10 0 13.28515625 2.45703125 C14.24035 3.55050954 15.165532 4.67077399 16.0625 5.8125 C16.56434814 6.40200439 17.06619629 6.99150879 17.58325195 7.59887695 C19.08562693 9.37671524 20.54538785 11.18300013 22 13 C22.80695313 13.97710938 23.61390625 14.95421875 24.4453125 15.9609375 C25.83678278 17.65300415 27.21565397 19.35562024 28.57421875 21.07421875 C32.24460402 25.50114076 36.15305339 29.72561487 40 34 C40.33 22.78 40.66 11.56 41 0 C44.63 0 48.26 0 52 0 C52 17.82 52 35.64 52 54 C42 54 42 54 38.93359375 51.76171875 C38.10988281 50.74722656 37.28617188 49.73273437 36.4375 48.6875 C35.75409546 47.87261108 35.75409546 47.87261108 35.05688477 47.04125977 C33.67537714 45.38234291 32.33628379 43.69543514 31 42 C29.47977943 40.1453309 27.95898097 38.29113527 26.4375 36.4375 C24.973125 34.643125 23.50875 32.84875 22 31 C18.7 27.37 15.4 23.74 12 20 C11.67 31.22 11.34 42.44 11 54 C7.37 54 3.74 54 0 54 C0 36.18 0 18.36 0 0 Z " fill="#FFFFFF" transform="translate(1735,655)"/>
<path d="M0 0 C11 0 11 0 13.7265625 1.80078125 C14.66628906 3.04408203 14.66628906 3.04408203 15.625 4.3125 C16.34945313 5.22644531 17.07390625 6.14039063 17.8203125 7.08203125 C18.53960937 8.04496094 19.25890625 9.00789062 20 10 C21.49304861 11.8389989 22.99305404 13.67237176 24.5 15.5 C25.23347656 16.4075 25.96695312 17.315 26.72265625 18.25 C29.75224659 21.90837324 32.93601783 25.41196999 36.15234375 28.90625 C38 31 38 31 40 34 C40.33 22.78 40.66 11.56 41 0 C44.63 0 48.26 0 52 0 C52 17.82 52 35.64 52 54 C42 54 42 54 38.85546875 51.46484375 C37.93609594 50.31240701 37.04783599 49.13465445 36.1875 47.9375 C35.18110864 46.65383247 34.17324163 45.37132078 33.1640625 44.08984375 C32.65133789 43.41937012 32.13861328 42.74889648 31.61035156 42.05810547 C28.89593805 38.58895661 25.97148663 35.30598752 23.0625 32 C22.01036574 30.79284459 20.95952638 29.58455901 19.91015625 28.375 C19.46808838 27.86710938 19.02602051 27.35921875 18.57055664 26.8359375 C16.35471904 24.24568431 14.1822071 21.61864852 12 19 C11.67 30.55 11.34 42.1 11 54 C7.37 54 3.74 54 0 54 C0 36.18 0 18.36 0 0 Z " fill="#FFFFFF" transform="translate(393,655)"/>
<path d="M0 0 C-1.43963639 3.35915158 -3.12416589 5.71624938 -6 8 C-8.81685498 7.56130947 -10.97041689 6.58171686 -13.625 5.4375 C-19.55367419 3.19212526 -25.3182478 3.08921623 -31.3125 5.125 C-35.98644807 8.385894 -39.50842213 12.44048247 -41 18 C-41.67951452 24.00237825 -40.24629117 28.06606739 -37 33 C-33.35782046 37.19402492 -29.16704434 37.99886996 -23.86328125 38.82421875 C-18.96111124 39.12517052 -14.39292512 38.19646256 -10 36 C-9.53348793 33.87423218 -9.53348793 33.87423218 -9.375 31.4375 C-9.25125 29.973125 -9.1275 28.50875 -9 27 C-13.95 27 -18.9 27 -24 27 C-24 24.03 -24 21.06 -24 18 C-15.42 18 -6.84 18 2 18 C2.2475 23.5378125 2.2475 23.5378125 2.5 29.1875 C2.57283203 30.3427417 2.64566406 31.4979834 2.72070312 32.68823242 C2.8797218 40.02168639 2.8797218 40.02168639 0.39013672 42.7902832 C-8.51165384 48.57422532 -20.17571503 50.45118114 -30.52734375 48.53125 C-38.27868784 46.52473874 -45.34362126 42.93056178 -49.9375 36.1875 C-54.009892 28.76137342 -54.79040564 21.24388269 -53 13 C-50.67113451 5.35402594 -44.86186396 -0.14586934 -38.0703125 -4.1328125 C-26.28177152 -9.52934459 -10.14647911 -8.17355262 0 0 Z " fill="#FFFFFF" transform="translate(1254,661)"/>
<path d="M0 0 C14.85 0 29.7 0 45 0 C45 3.3 45 6.6 45 10 C34.11 10 23.22 10 12 10 C12 13.96 12 17.92 12 22 C21.57 22 31.14 22 41 22 C41 24.97 41 27.94 41 31 C31.43 31 21.86 31 12 31 C12 35.62 12 40.24 12 45 C22.89 45 33.78 45 45 45 C45 47.97 45 50.94 45 54 C30.15 54 15.3 54 0 54 C0 36.18 0 18.36 0 0 Z " fill="#FFFFFF" transform="translate(1608,655)"/>
<path d="M0 0 C14.85 0 29.7 0 45 0 C45 3.3 45 6.6 45 10 C33.78 10 22.56 10 11 10 C11 13.96 11 17.92 11 22 C20.9 22 30.8 22 41 22 C41 24.97 41 27.94 41 31 C31.1 31 21.2 31 11 31 C11 35.62 11 40.24 11 45 C22.22 45 33.44 45 45 45 C45 47.97 45 50.94 45 54 C30.15 54 15.3 54 0 54 C0 36.18 0 18.36 0 0 Z " fill="#FFFFFF" transform="translate(7,655)"/>
<path d="M0 0 C14.52 0 29.04 0 44 0 C44 3.3 44 6.6 44 10 C33.11 10 22.22 10 11 10 C11 13.96 11 17.92 11 22 C20.9 22 30.8 22 41 22 C41 24.97 41 27.94 41 31 C31.1 31 21.2 31 11 31 C11 35.62 11 40.24 11 45 C22.22 45 33.44 45 45 45 C45 47.97 45 50.94 45 54 C30.15 54 15.3 54 0 54 C0 36.18 0 18.36 0 0 Z " fill="#FFFFFF" transform="translate(1339,655)"/>
<path d="M0 0 C14.52 0 29.04 0 44 0 C44 3.3 44 6.6 44 10 C33.11 10 22.22 10 11 10 C11 13.96 11 17.92 11 22 C20.57 22 30.14 22 40 22 C40 24.97 40 27.94 40 31 C30.43 31 20.86 31 11 31 C11 35.62 11 40.24 11 45 C22.22 45 33.44 45 45 45 C45 47.97 45 50.94 45 54 C30.15 54 15.3 54 0 54 C0 36.18 0 18.36 0 0 Z " fill="#FFFFFF" transform="translate(267,655)"/>
<path d="M0 0 C1.51400391 0.01740234 1.51400391 0.01740234 3.05859375 0.03515625 C4.07050781 0.04417969 5.08242188 0.05320312 6.125 0.0625 C6.90746094 0.07410156 7.68992187 0.08570313 8.49609375 0.09765625 C15.98884151 14.95488508 23.32892723 29.87385174 30.44970703 44.91308594 C31.14193554 46.35827043 31.86939488 47.78714842 32.63232422 49.19628906 C33.49609375 51.09765625 33.49609375 51.09765625 33.49609375 54.09765625 C29.53609375 54.09765625 25.57609375 54.09765625 21.49609375 54.09765625 C16.49609375 43.34765625 16.49609375 43.34765625 16.49609375 41.09765625 C3.13109375 41.59265625 3.13109375 41.59265625 -10.50390625 42.09765625 C-12.48390625 46.05765625 -14.46390625 50.01765625 -16.50390625 54.09765625 C-20.46390625 54.09765625 -24.42390625 54.09765625 -28.50390625 54.09765625 C-27.23565571 50.05213055 -25.7390688 46.33901749 -23.81640625 42.5625 C-23.28692383 41.51505615 -22.75744141 40.4676123 -22.21191406 39.38842773 C-21.64827148 38.28184814 -21.08462891 37.17526855 -20.50390625 36.03515625 C-15.6989051 26.52788804 -11.00766323 16.98014487 -6.48828125 7.33374023 C-6.10671875 6.52235596 -5.72515625 5.71097168 -5.33203125 4.875 C-5.00106445 4.16593506 -4.67009766 3.45687012 -4.32910156 2.72631836 C-3.04867909 0.19918867 -2.97411012 0.11599493 0 0 Z M1.49609375 14.09765625 C-2.46390625 23.00765625 -2.46390625 23.00765625 -6.50390625 32.09765625 C-0.56390625 32.09765625 5.37609375 32.09765625 11.49609375 32.09765625 C10.00357669 27.62010507 8.49362323 23.87543131 6.37109375 19.72265625 C5.83226562 18.66304687 5.2934375 17.6034375 4.73828125 16.51171875 C4.32835937 15.71507812 3.9184375 14.9184375 3.49609375 14.09765625 C2.83609375 14.09765625 2.17609375 14.09765625 1.49609375 14.09765625 Z " fill="#FFFFFF" transform="translate(820.50390625,654.90234375)"/>
<path d="M0 0 C1.51400391 0.01740234 1.51400391 0.01740234 3.05859375 0.03515625 C4.07050781 0.04417969 5.08242187 0.05320312 6.125 0.0625 C6.90746094 0.07410156 7.68992187 0.08570313 8.49609375 0.09765625 C11.25480215 5.73431674 14.01147581 11.37196624 16.76635742 17.01049805 C17.70168597 18.92417541 18.63754728 20.83759249 19.57397461 22.75073242 C33.49609375 51.19640625 33.49609375 51.19640625 33.49609375 54.09765625 C29.53609375 54.09765625 25.57609375 54.09765625 21.49609375 54.09765625 C19.51609375 50.13765625 17.53609375 46.17765625 15.49609375 42.09765625 C6.91609375 42.09765625 -1.66390625 42.09765625 -10.50390625 42.09765625 C-12.48390625 46.05765625 -14.46390625 50.01765625 -16.50390625 54.09765625 C-20.46390625 54.09765625 -24.42390625 54.09765625 -28.50390625 54.09765625 C-26.77863531 48.16489406 -24.03299989 42.78823501 -21.3125 37.265625 C-20.80719254 36.23327225 -20.30188507 35.20091949 -19.78126526 34.13728333 C-18.7164064 31.96376934 -17.64971194 29.79115382 -16.58129883 27.61938477 C-14.93967879 24.28164399 -13.30436035 20.94087176 -11.66992188 17.59960938 C-10.63448349 15.48810031 -9.59868869 13.37676597 -8.5625 11.265625 C-7.82500771 9.75949898 -7.82500771 9.75949898 -7.07261658 8.22294617 C-6.6186702 7.30141251 -6.16472382 6.37987885 -5.69702148 5.43041992 C-5.29668198 4.61578781 -4.89634247 3.8011557 -4.48387146 2.96183777 C-2.98815325 0.11654264 -2.98815325 0.11654264 0 0 Z M1.49609375 14.09765625 C0.15966216 16.90869438 -1.17252859 19.72172137 -2.50390625 22.53515625 C-2.88546875 23.33759766 -3.26703125 24.14003906 -3.66015625 24.96679688 C-4.02109375 25.73056641 -4.38203125 26.49433594 -4.75390625 27.28125 C-5.0890625 27.98822021 -5.42421875 28.69519043 -5.76953125 29.42358398 C-6.57085998 30.94560553 -6.57085998 30.94560553 -6.50390625 32.09765625 C-0.56390625 32.09765625 5.37609375 32.09765625 11.49609375 32.09765625 C10.36171875 29.49890625 9.22734375 26.90015625 8.05859375 24.22265625 C7.70224854 23.40555176 7.34590332 22.58844727 6.97875977 21.74658203 C6.69701904 21.10188965 6.41527832 20.45719727 6.125 19.79296875 C5.8369751 19.13312988 5.5489502 18.47329102 5.25219727 17.79345703 C4.69677063 16.5477375 4.10606357 15.31759588 3.49609375 14.09765625 C2.83609375 14.09765625 2.17609375 14.09765625 1.49609375 14.09765625 Z " fill="#FFFFFF" transform="translate(1093.50390625,654.90234375)"/>
<path d="M0 0 C3.96 0 7.92 0 12 0 C16.15043493 8.05446185 19.77950027 16.28707796 23.3125 24.625 C23.86755319 25.92850696 24.42288995 27.23189321 24.97851562 28.53515625 C26.322274 31.68872288 27.66221708 34.84389307 29 38 C33.185125 29.96727899 36.78110781 21.70912822 40.3125 13.375 C40.86755319 12.07149304 41.42288995 10.76810679 41.97851562 9.46484375 C43.322274 6.31127712 44.66221708 3.15610693 46 0 C49.96 0 53.92 0 58 0 C57.430796 4.79209467 55.95874532 8.72338161 53.8671875 13.0234375 C53.55226349 13.68727448 53.23733948 14.35111145 52.91287231 15.0350647 C51.90728054 17.1518148 50.89173398 19.26358243 49.875 21.375 C48.55627579 24.13109471 47.24196135 26.88926629 45.9296875 29.6484375 C45.60595154 30.3277533 45.28221558 31.00706909 44.94866943 31.70697021 C41.46176094 39.06330352 38.21713005 46.52258328 35 54 C31.37 54 27.74 54 24 54 C18.63143064 43.43356445 13.48753989 32.78366793 8.56054688 22.00415039 C7.47879152 19.64117236 6.38792704 17.28252566 5.296875 14.92382812 C4.60361537 13.41171097 3.9108858 11.89935065 3.21875 10.38671875 C2.89386597 9.6868132 2.56898193 8.98690765 2.23425293 8.26579285 C0.90225336 5.33117151 0 3.26212789 0 0 Z " fill="#FFFFFF" transform="translate(129,655)"/>
<path d="M0 0 C15.84 0 31.68 0 48 0 C48 3.3 48 6.6 48 10 C42.06 10 36.12 10 30 10 C30 24.52 30 39.04 30 54 C26.37 54 22.74 54 19 54 C19 39.48 19 24.96 19 10 C12.73 10 6.46 10 0 10 C0 6.7 0 3.4 0 0 Z " fill="#FFFFFF" transform="translate(1867,655)"/>
<path d="M0 0 C15.84 0 31.68 0 48 0 C48 3.3 48 6.6 48 10 C41.73 10 35.46 10 29 10 C29 24.52 29 39.04 29 54 C25.37 54 21.74 54 18 54 C18 39.48 18 24.96 18 10 C12.06 10 6.12 10 0 10 C0 6.7 0 3.4 0 0 Z " fill="#FFFFFF" transform="translate(526,655)"/>
</svg>