<svg xmlns="http://www.w3.org/2000/svg" id="Logo" viewBox="182.76 360.29 634.48 279.42"><defs><style>.cls-1{fill:#ffffff;}</style></defs><polygon class="cls-1" points="182.76 639.71 182.76 360.29 295.19 467.15 296.23 373.42 343.75 373.42 343.75 571.2 228.78 467.15 228.78 594.68 771.89 594.68 771.89 467.15 658.41 571.2 658.41 373.42 704.3 373.42 704.3 467.15 817.24 360.29 816.09 639.71 182.76 639.71"/><rect class="cls-1" x="372.99" y="373.42" width="50.35" height="187.88"/><path class="cls-1" d="M540.25,374.19a93.18,93.18,0,1,0,93.18,93.17A93.17,93.17,0,0,0,540.25,374.19Zm.94,141.44a48.27,48.27,0,1,1,48.27-48.27A48.27,48.27,0,0,1,541.19,515.63Z"/></svg>